<svg width="618" height="214" viewBox="0 0 618 214" fill="none" xmlns="http://www.w3.org/2000/svg">
<path d="M290.105 21.3744L275.384 30.5163C272.722 32.1691 269.266 31.3698 267.552 28.6999L250.834 2.67296C248.55 -0.886919 243.468 -0.893016 241.171 2.66686L224.448 28.6395C222.74 31.3639 219.266 32.1509 216.557 30.4557L201.895 21.3744C197.537 18.65 192.12 22.5247 193.121 27.6708L201.641 66.6962C201.824 67.5256 202.537 68.1129 203.367 68.1129H288.633C289.457 68.1129 290.176 67.5256 290.359 66.6962L298.879 27.6708C299.88 22.5247 294.463 18.65 290.105 21.3744Z" fill="url(#paint0_linear_1_26619)"/>
<path d="M289.796 79.4325V169.775H272.114V111.182L246.689 153.126H244.624L219.199 111.311V169.775H201.389V79.4325H219.716L245.657 122.152L271.469 79.4325H289.796ZM336.571 171.582C317.599 171.582 302.499 156.74 302.499 137.51C302.499 118.28 317.599 103.438 336.571 103.438C355.543 103.438 370.773 118.28 370.773 137.51C370.773 156.74 355.543 171.582 336.571 171.582ZM336.571 155.32C346.509 155.32 354.124 147.964 354.124 137.51C354.124 127.056 346.509 119.7 336.571 119.7C326.763 119.7 319.148 127.056 319.148 137.51C319.148 147.964 326.763 155.32 336.571 155.32ZM422.425 105.245H440.752L416.23 169.775H397.258L372.737 105.245H391.063L406.68 150.416L422.425 105.245ZM460.327 144.35C462.65 152.868 469.748 156.482 478.524 156.482C484.978 156.482 490.14 153.772 492.979 150.029L506.402 157.773C500.336 166.549 490.656 171.582 478.266 171.582C456.584 171.582 442.904 156.74 442.904 137.51C442.904 118.28 456.713 103.438 476.976 103.438C496.077 103.438 509.628 118.538 509.628 137.51C509.628 139.962 509.37 142.156 508.983 144.35H460.327ZM460.069 131.444H492.979C490.914 122.152 483.945 118.409 476.976 118.409C468.071 118.409 462.005 123.184 460.069 131.444ZM537.9 116.344C541.255 107.568 549.386 103.954 557.517 103.954V122.539C548.87 121.506 537.9 125.378 537.9 138.93V169.775H521.251V105.245H537.9V116.344ZM580.596 123.571C580.596 133.122 613.893 127.185 613.893 150.932C613.893 164.871 601.762 171.582 587.952 171.582C575.046 171.582 565.496 166.162 560.849 156.224L575.304 148.093C577.111 153.385 581.499 156.482 587.952 156.482C593.244 156.482 596.857 154.675 596.857 150.932C596.857 141.511 563.56 146.673 563.56 123.959C563.56 110.794 574.788 103.438 588.081 103.438C598.535 103.438 607.569 108.213 612.603 117.118L598.406 124.862C596.47 120.732 592.856 118.28 588.081 118.28C583.951 118.28 580.596 120.087 580.596 123.571Z" fill="url(#paint1_linear_1_26619)"/>
<path d="M38.4129 174.57C38.4129 183.153 45.2963 190.104 53.7777 190.104C62.2591 190.104 69.1426 183.153 69.1426 174.57C69.1426 165.988 62.2591 159.037 53.7777 159.037C45.2963 159.037 38.4129 165.988 38.4129 174.57ZM130.602 159.037C139.084 159.037 145.967 165.988 145.967 174.57C145.967 183.153 139.084 190.104 130.602 190.104C122.121 190.104 115.237 183.153 115.237 174.57C115.237 165.988 122.121 159.037 130.602 159.037ZM17.2861 132.474V155.153C17.2861 160.745 19.8981 165.639 23.8929 168.823C24.3539 169.211 25.1989 169.599 25.7366 169.599C26.6585 169.599 27.5037 169.133 27.7341 168.124C30.4998 156.241 41.1785 147.386 53.7777 147.386C67.2988 147.386 78.4304 157.476 80.3587 170.602C80.5277 171.751 81.4345 172.629 82.5869 172.629H101.793C102.945 172.629 103.852 171.751 104.021 170.602C105.942 157.476 117.081 147.386 130.602 147.386C143.201 147.386 153.88 156.241 156.646 168.124C156.876 169.056 157.798 169.677 158.797 169.599C159.181 169.599 160.103 169.134 160.487 168.823C164.482 165.639 167.094 160.745 167.094 155.153V136.125C167.094 134.835 166.064 133.795 164.789 133.795H107.555C104.405 133.795 101.793 131.154 101.793 127.969C101.793 124.785 104.405 122.144 107.555 122.144H164.789C166.064 122.144 167.094 121.104 167.094 119.814V69.7184C167.094 60.1108 159.319 52.243 149.808 52.243H88.3487C78.8379 52.243 71.0632 60.1108 71.0632 69.7184V83.3103H54.0084C34.495 83.3103 30.8076 92.6304 27.2737 101.64L19.2836 121.601C18.7459 123.076 18.2846 124.63 17.9773 126.106C17.8236 126.572 17.6706 127.115 17.6706 127.659C17.4402 129.212 17.2861 130.843 17.2861 132.474ZM31.4985 122.144L38.0284 105.989C41.255 97.7564 42.3311 94.9605 54.0084 94.9605H71.0632V122.144H31.4985Z" fill="url(#paint2_linear_1_26619)"/>
<defs>
<linearGradient id="paint0_linear_1_26619" x1="246" y1="0" x2="246" y2="68.1129" gradientUnits="userSpaceOnUse">
<stop stop-color="#1347FF"/>
<stop offset="1" stop-color="#0032E7"/>
</linearGradient>
<linearGradient id="paint1_linear_1_26619" x1="405.5" y1="47.7753" x2="405.5" y2="203.775" gradientUnits="userSpaceOnUse">
<stop stop-color="#1347FF"/>
<stop offset="1" stop-color="#0032E7"/>
</linearGradient>
<linearGradient id="paint2_linear_1_26619" x1="92.1899" y1="52.243" x2="92.1899" y2="190.104" gradientUnits="userSpaceOnUse">
<stop stop-color="#1347FF"/>
<stop offset="1" stop-color="#0032E7"/>
</linearGradient>
</defs>
</svg>
