<svg width="148" height="146" viewBox="0 0 148 146" fill="none" xmlns="http://www.w3.org/2000/svg">
<path d="M70.2996 117.938C98.2996 117.938 121 95.2384 121 67.1384C121 39.0384 98.1996 16.3384 70.2996 16.3384C42.2996 16.3384 19.5996 39.0384 19.5996 67.1384C19.5996 95.2384 42.2996 117.938 70.2996 117.938Z" fill="#EAEEF9"/>
<path d="M117.7 33.8382C119.964 33.8382 121.8 32.0026 121.8 29.7382C121.8 27.4738 119.964 25.6382 117.7 25.6382C115.435 25.6382 113.6 27.4738 113.6 29.7382C113.6 32.0026 115.435 33.8382 117.7 33.8382Z" fill="#EAEEF9"/>
<path d="M123.7 17.8383C125.247 17.8383 126.5 16.5847 126.5 15.0383C126.5 13.4919 125.247 12.2383 123.7 12.2383C122.154 12.2383 120.9 13.4919 120.9 15.0383C120.9 16.5847 122.154 17.8383 123.7 17.8383Z" fill="#EAEEF9"/>
<path d="M22.3 33.7382C23.8464 33.7382 25.1 32.4846 25.1 30.9382C25.1 29.3918 23.8464 28.1382 22.3 28.1382C20.7536 28.1382 19.5 29.3918 19.5 30.9382C19.5 32.4846 20.7536 33.7382 22.3 33.7382Z" fill="#EAEEF9"/>
<path d="M5.2 87.7384C8.07188 87.7384 10.4 85.4103 10.4 82.5384C10.4 79.6665 8.07188 77.3384 5.2 77.3384C2.32812 77.3384 0 79.6665 0 82.5384C0 85.4103 2.32812 87.7384 5.2 87.7384Z" fill="#EAEEF9"/>
<path d="M147.569 51.1887H142.608V46.2275H138.356V51.1887H133.395V55.5828H138.356V60.544H142.608V55.5828H147.569V51.1887Z" fill="url(#paint0_linear_1_11545)"/>
<path d="M65.4679 4.24105H61.2268V0H57.5916V4.24105H53.3506V7.99741H57.5916V12.2385H61.2268V7.99741H65.4679V4.24105Z" fill="url(#paint1_linear_1_11545)"/>
<path d="M15.5532 46.5527H11.9296V42.9292H8.82373V46.5527H5.2002V49.7622H8.82373V53.3857H11.9296V49.7622H15.5532V46.5527Z" fill="url(#paint2_linear_1_11545)"/>
<g filter="url(#filter0_d_1_11545)">
<path d="M105.964 57.3419L95.9507 32.8903C94.1654 28.5434 89.5079 26.0594 84.9281 27.0685L59.0793 32.6575C56.9059 33.1232 55.0429 34.5981 53.9562 36.5387L29.3494 83.4235C28.3403 85.3641 29.0389 87.8481 31.0571 88.8572L75.6133 112.3C77.5538 113.309 80.0378 112.61 81.0469 110.592L105.654 63.7071C106.74 61.7665 106.818 59.4377 105.964 57.3419ZM81.2022 47.4836C78.0196 45.8535 76.7776 41.8947 78.4853 38.7121C80.1154 35.5296 84.0743 34.2876 87.2568 35.9953C90.4394 37.6254 91.6814 41.5842 89.9737 44.7668C88.3436 47.9494 84.3848 49.1914 81.2022 47.4836Z" fill="url(#paint3_linear_1_11545)"/>
</g>
<path d="M84.3848 41.5066C104.645 31.0274 112.64 15.4249 102.083 8.67166C91.5262 1.91838 81.1246 8.67166 78.4854 28.3105" stroke="#ADB6C8" stroke-width="5" stroke-miterlimit="10" stroke-linecap="round" stroke-linejoin="round"/>
<path d="M79.0974 75.3346C80.4679 76.0933 82.293 75.5689 83.0517 74.1983C83.8105 72.8278 83.286 71.0027 81.9154 70.244C80.5449 69.4853 78.7198 70.0097 77.9611 71.3803C77.1482 72.8487 77.6289 74.5217 79.0974 75.3346Z" fill="#AAB2C5"/>
<path d="M71.2872 78.9151L70.0146 78.2106C70.2383 75.2649 67.8871 72.8122 64.9851 72.7405C63.8872 72.6444 62.6705 72.994 61.7912 73.6583L60.5185 72.9538C63.2754 70.5151 67.6668 70.8997 69.9534 73.7003C70.9988 75.0464 71.6211 76.9257 71.2872 78.9151Z" fill="#AAB2C5"/>
<path d="M59.5183 64.4958C60.8889 65.2545 62.7139 64.73 63.4726 63.3595C64.2314 61.9889 63.7069 60.1638 62.3363 59.4051C60.9658 58.6464 59.1407 59.1709 58.382 60.5414C57.667 62.0641 58.1477 63.7371 59.5183 64.4958Z" fill="#AAB2C5"/>
<defs>
<filter id="filter0_d_1_11545" x="6.8916" y="15.8447" width="121.652" height="129.913" filterUnits="userSpaceOnUse" color-interpolation-filters="sRGB">
<feFlood flood-opacity="0" result="BackgroundImageFix"/>
<feColorMatrix in="SourceAlpha" type="matrix" values="0 0 0 0 0 0 0 0 0 0 0 0 0 0 0 0 0 0 127 0" result="hardAlpha"/>
<feOffset dy="11"/>
<feGaussianBlur stdDeviation="11"/>
<feColorMatrix type="matrix" values="0 0 0 0 0.397708 0 0 0 0 0.47749 0 0 0 0 0.575 0 0 0 0.27 0"/>
<feBlend mode="normal" in2="BackgroundImageFix" result="effect1_dropShadow_1_11545"/>
<feBlend mode="normal" in="SourceGraphic" in2="effect1_dropShadow_1_11545" result="shape"/>
</filter>
<linearGradient id="paint0_linear_1_11545" x1="140.483" y1="46.7249" x2="140.483" y2="54.7606" gradientUnits="userSpaceOnUse">
<stop stop-color="#B0BACC"/>
<stop offset="1" stop-color="#969EAE"/>
</linearGradient>
<linearGradient id="paint1_linear_1_11545" x1="59.4102" y1="0.42515" x2="59.4102" y2="7.29447" gradientUnits="userSpaceOnUse">
<stop stop-color="#B0BACC"/>
<stop offset="1" stop-color="#969EAE"/>
</linearGradient>
<linearGradient id="paint2_linear_1_11545" x1="10.3775" y1="43.2924" x2="10.3775" y2="49.1616" gradientUnits="userSpaceOnUse">
<stop stop-color="#B0BACC"/>
<stop offset="1" stop-color="#969EAE"/>
</linearGradient>
<linearGradient id="paint3_linear_1_11545" x1="67.6925" y1="24.8575" x2="67.6925" y2="113.684" gradientUnits="userSpaceOnUse">
<stop stop-color="#FDFEFF"/>
<stop offset="0.9964" stop-color="#ECF0F5"/>
</linearGradient>
</defs>
</svg>
