<svg width="148" height="120" viewBox="0 0 148 120" fill="none" xmlns="http://www.w3.org/2000/svg">
<rect x="14.5" width="120" height="120" rx="60" fill="#F6F7F9"/>
<circle cx="3.5" cy="17" r="2" fill="#FFDE65"/>
<circle cx="132.5" cy="11" r="2" fill="#2DD4BF"/>
<circle cx="144" cy="20.5" r="3.5" fill="#E5E7EB"/>
<circle cx="2.5" cy="109" r="2" fill="#FF8092"/>
<path d="M47 33.0104C47 33.0104 47 33.0083 47 33.0063L47.0021 33.0042C47.0042 33.0021 47.0042 33 47.0063 33C47.0083 33 47.0104 33 47.0104 33H68.0998L73.7478 33.4814C73.7478 33.4814 73.7478 33.4814 73.7499 33.4814L79.0498 33H100.137C100.139 33 100.141 33 100.145 33.0042C100.148 33.0063 100.148 33.0083 100.148 33.0104V86.1371C100.148 86.1392 100.148 86.1434 100.145 86.1454C100.141 86.1475 100.139 86.1475 100.137 86.1475H47.0104C47.0083 86.1475 47.0042 86.1475 47.0021 86.1454C47 86.1434 47 86.1392 47 86.1371V33.0104Z" fill="url(#paint0_linear_183_2334)"/>
<path d="M79.0394 33H68.1102C68.1039 33 68.0977 33.0062 68.0977 33.0104V53.535C68.0977 53.5412 68.1039 53.5454 68.1102 53.5454H79.0394C79.0456 53.5454 79.0498 53.5412 79.0498 53.535V33.0104C79.0498 33.0062 79.0456 33 79.0394 33Z" fill="white"/>
<path d="M98.4423 97.5288C105.929 97.5288 112 91.4577 112 83.9694C112 76.4811 105.929 70.4121 98.4423 70.4121C90.9519 70.4121 84.8809 76.4811 84.8809 83.9694C84.8809 91.4577 90.9519 97.5288 98.4423 97.5288Z" fill="#FFC900"/>
<path d="M96.3544 90.9741C96.319 90.9741 96.2856 90.9741 96.2523 90.972C96.0272 90.9553 95.8084 90.8928 95.6104 90.7844C95.4124 90.6761 95.2415 90.526 95.106 90.3447L90.721 84.3966C90.4876 84.0652 90.3917 83.6546 90.4542 83.2545C90.5209 82.8522 90.7397 82.4938 91.067 82.252C91.3921 82.0102 91.8027 81.9081 92.2049 81.9644C92.6071 82.0227 92.9698 82.2353 93.2178 82.5584L96.5024 87.0205C96.5045 87.0205 96.5065 87.0226 96.5086 87.0226C96.5086 87.0247 96.5107 87.0247 96.5128 87.0247C96.5128 87.0247 96.5149 87.0247 96.517 87.0226C96.5191 87.0226 96.5211 87.0226 96.5211 87.0205L103.795 79.4801C104.08 79.1842 104.472 79.0133 104.883 79.007C105.293 78.9987 105.689 79.155 105.987 79.4405C106.281 79.726 106.452 80.1178 106.46 80.5284C106.467 80.939 106.31 81.3371 106.025 81.6309L97.4673 90.5031C97.3235 90.6511 97.1506 90.7699 96.9588 90.8511C96.7671 90.9324 96.5607 90.9741 96.3544 90.9741Z" fill="#111827"/>
<defs>
<linearGradient id="paint0_linear_183_2334" x1="73.5738" y1="33" x2="73.5738" y2="86.1475" gradientUnits="userSpaceOnUse">
<stop stop-color="#1347FF"/>
<stop offset="1" stop-color="#0032E7"/>
</linearGradient>
</defs>
</svg>
