<svg width="474" height="374" viewBox="0 0 474 374" fill="none" xmlns="http://www.w3.org/2000/svg">
<path d="M368.24 176.556C368.24 104.084 309.48 45.3478 237 45.3478C164.519 45.3478 105.759 104.084 105.759 176.556C105.759 249.027 164.517 307.775 237 307.775C237.531 307.775 238.06 307.775 238.589 307.775C234.691 315.62 228.47 322.912 217.296 327.583C246.187 325.728 291.195 305.37 312.745 283.743C346.32 259.961 368.24 220.819 368.24 176.556Z" fill="url(#paint0_linear_1_11879)"/>
<g opacity="0.1">
<path opacity="0.06" d="M237 373.222C359.928 373.222 459.581 367.855 459.581 361.235C459.581 354.615 359.928 349.248 237 349.248C114.072 349.248 14.4189 354.615 14.4189 361.235C14.4189 367.855 114.072 373.222 237 373.222Z" fill="black"/>
<path opacity="0.13" d="M237 372.446C351.966 372.446 445.164 367.426 445.164 361.235C445.164 355.043 351.966 350.024 237 350.024C122.034 350.024 28.8354 355.043 28.8354 361.235C28.8354 367.426 122.034 372.446 237 372.446Z" fill="black"/>
<path opacity="0.19" d="M237 371.67C344.003 371.67 430.745 366.998 430.745 361.235C430.745 355.472 344.003 350.8 237 350.8C129.997 350.8 43.2544 355.472 43.2544 361.235C43.2544 366.998 129.997 371.67 237 371.67Z" fill="black"/>
<path opacity="0.25" d="M237 370.894C336.04 370.894 416.329 366.569 416.329 361.235C416.329 355.9 336.04 351.576 237 351.576C137.959 351.576 57.6709 355.9 57.6709 361.235C57.6709 366.569 137.959 370.894 237 370.894Z" fill="black"/>
<path opacity="0.31" d="M237 370.115C328.077 370.115 401.91 366.139 401.91 361.235C401.91 356.33 328.077 352.354 237 352.354C145.923 352.354 72.0898 356.33 72.0898 361.235C72.0898 366.139 145.923 370.115 237 370.115Z" fill="black"/>
<path opacity="0.38" d="M237 369.339C320.115 369.339 387.494 365.711 387.494 361.235C387.494 356.759 320.115 353.13 237 353.13C153.885 353.13 86.5068 356.759 86.5068 361.235C86.5068 365.711 153.885 369.339 237 369.339Z" fill="black"/>
<path opacity="0.44" d="M237 368.563C312.152 368.563 373.075 365.282 373.075 361.235C373.075 357.187 312.152 353.906 237 353.906C161.848 353.906 100.926 357.187 100.926 361.235C100.926 365.282 161.848 368.563 237 368.563Z" fill="black"/>
<path opacity="0.5" d="M237 367.787C304.19 367.787 358.658 364.854 358.658 361.235C358.658 357.616 304.19 354.682 237 354.682C169.81 354.682 115.342 357.616 115.342 361.235C115.342 364.854 169.81 367.787 237 367.787Z" fill="black"/>
<path opacity="0.56" d="M237 367.011C296.227 367.011 344.239 364.425 344.239 361.235C344.239 358.045 296.227 355.458 237 355.458C177.774 355.458 129.761 358.045 129.761 361.235C129.761 364.425 177.774 367.011 237 367.011Z" fill="black"/>
<path opacity="0.63" d="M237 366.233C288.264 366.233 329.822 363.995 329.822 361.235C329.822 358.474 288.264 356.237 237 356.237C185.736 356.237 144.178 358.474 144.178 361.235C144.178 363.995 185.736 366.233 237 366.233Z" fill="black"/>
<path opacity="0.69" d="M158.597 361.235C158.597 363.568 193.699 365.459 237 365.459C280.301 365.459 315.403 363.568 315.403 361.235C315.403 358.902 280.301 357.013 237 357.013C193.699 357.013 158.597 358.902 158.597 361.235Z" fill="black"/>
<path opacity="0.75" d="M173.016 361.235C173.016 363.138 201.662 364.681 237 364.681C272.338 364.681 300.984 363.138 300.984 361.235C300.984 359.331 272.338 357.789 237 357.789C201.662 357.789 173.016 359.334 173.016 361.235Z" fill="black"/>
<path opacity="0.81" d="M187.432 361.235C187.432 362.709 209.625 363.902 237 363.902C264.375 363.902 286.568 362.707 286.568 361.235C286.568 359.763 264.375 358.567 237 358.567C209.625 358.567 187.432 359.763 187.432 361.235Z" fill="black"/>
<path opacity="0.88" d="M201.851 361.235C201.851 362.282 217.587 363.129 237 363.129C256.413 363.129 272.149 362.282 272.149 361.235C272.149 360.187 256.413 359.343 237 359.343C217.587 359.343 201.851 360.19 201.851 361.235Z" fill="black"/>
<path opacity="0.94" d="M216.268 361.235C216.268 361.853 225.55 362.353 237 362.353C248.45 362.353 257.732 361.853 257.732 361.235C257.732 360.616 248.45 360.119 237 360.119C225.55 360.119 216.268 360.619 216.268 361.235Z" fill="black"/>
<path d="M230.687 361.235C230.687 361.424 233.512 361.577 236.993 361.577C240.473 361.577 243.299 361.424 243.299 361.235C243.299 361.046 240.473 360.895 236.993 360.895C233.512 360.895 230.687 361.048 230.687 361.235Z" fill="black"/>
</g>
<path d="M352.934 75.8568C351.214 75.8573 349.532 75.3476 348.101 74.3922C346.671 73.4368 345.556 72.0786 344.898 70.4895C344.24 68.9004 344.068 67.1519 344.404 65.465C344.74 63.7782 345.569 62.2289 346.786 61.0132C348.003 59.7975 349.553 58.9701 351.24 58.6355C352.927 58.301 354.676 58.4744 356.265 59.1338C357.854 59.7932 359.211 60.909 360.166 62.34C361.12 63.771 361.628 65.4529 361.626 67.1729C361.621 69.4757 360.704 71.6826 359.074 73.3103C357.445 74.9379 355.237 75.8536 352.934 75.8568ZM352.934 61.1515C351.746 61.1539 350.585 61.5083 349.598 62.1699C348.611 62.8315 347.842 63.7706 347.388 64.8688C346.935 65.9669 346.817 67.1747 347.05 68.3398C347.282 69.5049 347.855 70.5749 348.695 71.4148C349.536 72.2548 350.606 72.8269 351.771 73.0589C352.937 73.291 354.145 73.1726 355.243 72.7188C356.341 72.2649 357.28 71.4959 357.941 70.5088C358.603 69.5218 358.957 68.3609 358.958 67.1729C358.959 66.3818 358.803 65.5985 358.5 64.8677C358.198 64.1368 357.754 63.4728 357.194 62.9136C356.635 62.3544 355.971 61.9109 355.24 61.6085C354.508 61.3062 353.725 61.1509 352.934 61.1515Z" fill="url(#paint1_linear_1_11879)"/>
<path d="M371.105 99.5129L376.395 94.2239C376.522 94.1 376.623 93.9521 376.693 93.7887C376.762 93.6253 376.798 93.4498 376.799 93.2723C376.8 93.0948 376.766 92.9189 376.699 92.7547C376.631 92.5905 376.532 92.4413 376.407 92.3158C376.281 92.1902 376.132 92.0909 375.968 92.0235C375.803 91.956 375.627 91.9219 375.45 91.923C375.272 91.9241 375.097 91.9604 374.933 92.0299C374.77 92.0993 374.622 92.2005 374.498 92.3276L369.208 97.6141L363.918 92.3276C363.795 92.2005 363.647 92.0993 363.483 92.0299C363.32 91.9604 363.144 91.9241 362.967 91.923C362.789 91.9219 362.613 91.956 362.449 92.0235C362.285 92.0909 362.136 92.1902 362.01 92.3158C361.884 92.4413 361.785 92.5905 361.718 92.7547C361.65 92.9189 361.616 93.0948 361.617 93.2723C361.618 93.4498 361.655 93.6253 361.724 93.7887C361.794 93.9521 361.895 94.1 362.022 94.2239L367.312 99.5129L362.022 104.802C361.895 104.926 361.794 105.074 361.724 105.237C361.655 105.4 361.618 105.576 361.617 105.753C361.616 105.931 361.65 106.107 361.718 106.271C361.785 106.435 361.884 106.585 362.01 106.71C362.136 106.836 362.285 106.935 362.449 107.002C362.613 107.07 362.789 107.104 362.967 107.103C363.144 107.102 363.32 107.065 363.483 106.996C363.647 106.926 363.795 106.825 363.918 106.698L369.208 101.409L374.498 106.701C374.622 106.828 374.77 106.929 374.933 106.998C375.097 107.068 375.272 107.104 375.45 107.105C375.627 107.106 375.803 107.072 375.968 107.005C376.132 106.937 376.281 106.838 376.407 106.712C376.532 106.587 376.631 106.438 376.699 106.274C376.766 106.109 376.8 105.933 376.799 105.756C376.798 105.578 376.762 105.403 376.693 105.24C376.623 105.076 376.522 104.928 376.395 104.804L371.105 99.5129Z" fill="url(#paint2_linear_1_11879)"/>
<path d="M322.168 42.7821L327.458 37.4931C327.585 37.3692 327.686 37.2212 327.755 37.0579C327.825 36.8945 327.861 36.719 327.862 36.5415C327.863 36.364 327.829 36.188 327.762 36.0238C327.694 35.8596 327.595 35.7104 327.47 35.5849C327.344 35.4594 327.195 35.3601 327.031 35.2926C326.866 35.2252 326.69 35.1911 326.513 35.1922C326.335 35.1933 326.16 35.2296 325.996 35.299C325.833 35.3685 325.685 35.4697 325.561 35.5967L320.271 40.8857L314.982 35.5967C314.858 35.4697 314.71 35.3685 314.546 35.299C314.383 35.2296 314.207 35.1933 314.03 35.1922C313.852 35.1911 313.676 35.2252 313.512 35.2926C313.348 35.3601 313.199 35.4594 313.073 35.5849C312.947 35.7104 312.848 35.8596 312.781 36.0238C312.713 36.188 312.679 36.364 312.68 36.5415C312.681 36.719 312.718 36.8945 312.787 37.0579C312.857 37.2212 312.958 37.3692 313.085 37.4931L318.375 42.7821L313.085 48.071C312.838 48.3235 312.702 48.663 312.704 49.0157C312.706 49.3685 312.847 49.7062 313.097 49.9557C313.346 50.2051 313.684 50.3463 314.037 50.3484C314.389 50.3506 314.729 50.2137 314.982 49.9674L320.271 44.6784L325.561 49.9674C325.685 50.0944 325.833 50.1956 325.996 50.2651C326.16 50.3345 326.335 50.3709 326.513 50.372C326.69 50.3731 326.866 50.3389 327.031 50.2715C327.195 50.2041 327.344 50.1047 327.47 49.9792C327.595 49.8537 327.694 49.7045 327.762 49.5403C327.829 49.3761 327.863 49.2001 327.862 49.0226C327.861 48.8451 327.825 48.6696 327.755 48.5063C327.686 48.3429 327.585 48.195 327.458 48.071L322.168 42.7821Z" fill="url(#paint3_linear_1_11879)"/>
<path d="M93.863 228.594C92.1432 228.594 90.462 228.084 89.0321 227.129C87.6021 226.173 86.4876 224.815 85.8296 223.227C85.1716 221.638 84.9995 219.89 85.3352 218.203C85.6709 216.517 86.4993 214.968 87.7155 213.752C88.9318 212.536 90.4814 211.708 92.1682 211.373C93.855 211.038 95.6034 211.211 97.1922 211.869C98.7809 212.527 100.139 213.642 101.094 215.072C102.049 216.502 102.559 218.183 102.558 219.903C102.555 222.207 101.638 224.416 100.008 226.046C98.3776 227.675 96.1679 228.591 93.863 228.594ZM93.863 213.886C92.6738 213.886 91.5114 214.239 90.5226 214.899C89.5339 215.56 88.7632 216.499 88.3081 217.597C87.8531 218.696 87.734 219.904 87.966 221.071C88.198 222.237 88.7706 223.308 89.6115 224.149C90.4524 224.989 91.5237 225.562 92.69 225.794C93.8563 226.026 95.0653 225.907 96.1639 225.452C97.2626 224.997 98.2016 224.226 98.8623 223.238C99.5229 222.249 99.8756 221.087 99.8756 219.898C99.8737 218.304 99.2396 216.776 98.1124 215.649C96.9853 214.522 95.4571 213.888 93.863 213.886Z" fill="url(#paint4_linear_1_11879)"/>
<path d="M114.479 266.936L119.757 261.659C119.884 261.535 119.985 261.387 120.054 261.224C120.124 261.06 120.16 260.885 120.161 260.707C120.162 260.53 120.128 260.354 120.061 260.19C119.993 260.025 119.894 259.876 119.768 259.751C119.643 259.625 119.494 259.526 119.329 259.458C119.165 259.391 118.989 259.357 118.812 259.358C118.634 259.359 118.459 259.395 118.295 259.465C118.132 259.534 117.984 259.635 117.86 259.763L112.57 265.051L107.28 259.763C107.156 259.635 107.008 259.534 106.845 259.465C106.682 259.395 106.506 259.359 106.329 259.358C106.151 259.357 105.975 259.391 105.811 259.458C105.647 259.526 105.497 259.625 105.372 259.751C105.246 259.876 105.147 260.025 105.08 260.19C105.012 260.354 104.978 260.53 104.979 260.707C104.98 260.885 105.016 261.06 105.086 261.224C105.155 261.387 105.257 261.535 105.384 261.659L110.673 266.948L105.384 272.237C105.257 272.361 105.155 272.509 105.086 272.672C105.016 272.835 104.98 273.011 104.979 273.188C104.978 273.366 105.012 273.542 105.08 273.706C105.147 273.87 105.246 274.019 105.372 274.145C105.497 274.27 105.647 274.37 105.811 274.437C105.975 274.505 106.151 274.539 106.329 274.538C106.506 274.537 106.682 274.5 106.845 274.431C107.008 274.361 107.156 274.26 107.28 274.133L112.57 268.844L117.86 274.133C117.984 274.26 118.132 274.361 118.295 274.431C118.459 274.5 118.634 274.537 118.812 274.538C118.989 274.539 119.165 274.505 119.329 274.437C119.494 274.37 119.643 274.27 119.768 274.145C119.894 274.019 119.993 273.87 120.061 273.706C120.128 273.542 120.162 273.366 120.161 273.188C120.16 273.011 120.124 272.835 120.054 272.672C119.985 272.509 119.884 272.361 119.757 272.237L114.479 266.936Z" fill="url(#paint5_linear_1_11879)"/>
<path d="M152.072 307.227C150.353 307.227 148.672 306.717 147.242 305.762C145.812 304.807 144.697 303.449 144.039 301.861C143.381 300.272 143.209 298.524 143.545 296.838C143.88 295.151 144.708 293.602 145.924 292.386C147.14 291.17 148.689 290.342 150.376 290.007C152.063 289.672 153.811 289.844 155.4 290.502C156.989 291.16 158.347 292.274 159.302 293.704C160.258 295.133 160.768 296.814 160.768 298.534C160.765 300.839 159.848 303.048 158.218 304.678C156.588 306.308 154.378 307.225 152.072 307.227ZM152.072 292.522C150.883 292.522 149.721 292.875 148.732 293.535C147.743 294.196 146.973 295.135 146.518 296.233C146.063 297.332 145.943 298.54 146.175 299.706C146.407 300.873 146.98 301.944 147.821 302.785C148.662 303.625 149.733 304.198 150.899 304.43C152.066 304.662 153.275 304.543 154.373 304.088C155.472 303.633 156.411 302.862 157.072 301.874C157.732 300.885 158.085 299.723 158.085 298.534C158.083 296.94 157.449 295.412 156.322 294.285C155.195 293.158 153.667 292.524 152.072 292.522Z" fill="url(#paint6_linear_1_11879)"/>
<path d="M352.934 275.326C351.214 275.326 349.533 274.816 348.103 273.861C346.673 272.906 345.559 271.548 344.901 269.96C344.243 268.371 344.07 266.623 344.406 264.937C344.741 263.25 345.569 261.701 346.785 260.485C348.001 259.269 349.551 258.441 351.237 258.106C352.924 257.771 354.672 257.943 356.261 258.601C357.85 259.259 359.208 260.373 360.163 261.803C361.119 263.232 361.629 264.913 361.629 266.633C361.626 268.938 360.709 271.147 359.079 272.777C357.449 274.407 355.239 275.324 352.934 275.326ZM352.934 260.621C351.745 260.621 350.582 260.974 349.593 261.634C348.605 262.295 347.834 263.234 347.379 264.332C346.924 265.431 346.805 266.639 347.037 267.805C347.269 268.972 347.841 270.043 348.682 270.883C349.523 271.724 350.594 272.297 351.761 272.529C352.927 272.761 354.136 272.642 355.235 272.187C356.333 271.732 357.272 270.961 357.933 269.973C358.594 268.984 358.946 267.822 358.946 266.633C358.944 265.039 358.31 263.511 357.183 262.384C356.056 261.257 354.528 260.623 352.934 260.621Z" fill="url(#paint7_linear_1_11879)"/>
<path d="M382.567 224.685L387.857 219.396C387.984 219.272 388.085 219.124 388.155 218.96C388.224 218.797 388.261 218.622 388.262 218.444C388.263 218.267 388.229 218.091 388.161 217.926C388.094 217.762 387.994 217.613 387.869 217.487C387.743 217.362 387.594 217.263 387.43 217.195C387.266 217.128 387.09 217.094 386.912 217.095C386.735 217.096 386.559 217.132 386.396 217.202C386.232 217.271 386.084 217.372 385.96 217.499L380.671 222.788L375.381 217.499C375.128 217.253 374.789 217.116 374.436 217.118C374.083 217.12 373.745 217.262 373.496 217.511C373.246 217.76 373.105 218.098 373.103 218.451C373.101 218.804 373.238 219.143 373.484 219.396L378.774 224.685L373.484 229.974C373.238 230.226 373.101 230.566 373.103 230.918C373.105 231.271 373.246 231.609 373.496 231.858C373.745 232.108 374.083 232.249 374.436 232.251C374.789 232.253 375.128 232.116 375.381 231.87L380.671 226.581L385.96 231.87C386.213 232.116 386.552 232.253 386.905 232.251C387.258 232.249 387.596 232.108 387.845 231.858C388.095 231.609 388.236 231.271 388.238 230.918C388.24 230.566 388.103 230.226 387.857 229.974L382.567 224.685Z" fill="url(#paint8_linear_1_11879)"/>
<path d="M92.7082 122.221C90.9885 122.221 89.3074 121.711 87.8775 120.756C86.4476 119.8 85.3332 118.443 84.6751 116.854C84.017 115.265 83.8448 113.517 84.1803 111.831C84.5158 110.145 85.3439 108.596 86.5599 107.38C87.7759 106.164 89.3252 105.336 91.0119 105C92.6986 104.665 94.4469 104.837 96.0357 105.495C97.6245 106.153 98.9825 107.267 99.9379 108.697C100.893 110.127 101.403 111.808 101.403 113.527C101.401 115.832 100.484 118.042 98.8537 119.672C97.2236 121.301 95.0135 122.218 92.7082 122.221ZM92.7082 107.515C91.5183 107.514 90.3548 107.866 89.3648 108.526C88.3749 109.186 87.6031 110.125 87.1472 111.224C86.6913 112.323 86.5718 113.532 86.8038 114.699C87.0357 115.866 87.6087 116.938 88.4503 117.779C89.2919 118.62 90.3641 119.192 91.5312 119.424C92.6984 119.655 93.908 119.535 95.0069 119.079C96.1058 118.623 97.0446 117.851 97.7044 116.861C98.3643 115.871 98.7154 114.707 98.7135 113.517C98.7116 111.925 98.0785 110.398 96.9529 109.271C95.8273 108.144 94.301 107.51 92.7082 107.506V107.515Z" fill="url(#paint9_linear_1_11879)"/>
<path d="M124.488 76.6546L129.778 71.3657C129.905 71.2417 130.006 71.0938 130.076 70.9304C130.145 70.7671 130.182 70.5915 130.183 70.414C130.184 70.2365 130.15 70.0606 130.082 69.8964C130.015 69.7322 129.915 69.583 129.79 69.4575C129.664 69.332 129.515 69.2326 129.351 69.1652C129.187 69.0978 129.011 69.0636 128.833 69.0647C128.656 69.0658 128.48 69.1022 128.317 69.1716C128.153 69.2411 128.005 69.3422 127.881 69.4693L122.592 74.7583L117.302 69.4693C117.049 69.223 116.71 69.086 116.357 69.0882C116.004 69.0904 115.666 69.2315 115.417 69.481C115.167 69.7304 115.026 70.0681 115.024 70.4209C115.022 70.7737 115.159 71.1131 115.405 71.3657L120.695 76.6546L115.405 81.9436C115.159 82.1961 115.022 82.5355 115.024 82.8883C115.026 83.2411 115.167 83.5788 115.417 83.8282C115.666 84.0777 116.004 84.2188 116.357 84.221C116.71 84.2232 117.049 84.0863 117.302 83.8399L122.592 78.551L127.881 83.8399C128.005 83.967 128.153 84.0682 128.317 84.1376C128.48 84.2071 128.656 84.2434 128.833 84.2445C129.011 84.2456 129.187 84.2115 129.351 84.144C129.515 84.0766 129.664 83.9773 129.79 83.8518C129.915 83.7262 130.015 83.5771 130.082 83.4129C130.15 83.2486 130.184 83.0727 130.183 82.8952C130.182 82.7177 130.145 82.5422 130.076 82.3788C130.006 82.2155 129.905 82.0675 129.778 81.9436L124.488 76.6546Z" fill="url(#paint10_linear_1_11879)"/>
<path d="M154.752 54.0293C153.032 54.0293 151.35 53.5191 149.92 52.5633C148.49 51.6075 147.376 50.249 146.718 48.6598C146.06 47.0705 145.889 45.3219 146.225 43.6351C146.562 41.9484 147.391 40.3993 148.608 39.184C149.825 37.9687 151.376 37.1416 153.063 36.8075C154.751 36.4735 156.499 36.6474 158.088 37.3072C159.677 37.9671 161.034 39.0833 161.988 40.5145C162.942 41.9458 163.45 43.6278 163.447 45.3478C163.441 47.6506 162.523 49.8572 160.893 51.4845C159.264 53.1117 157.055 54.0268 154.752 54.0293ZM154.752 39.324C153.564 39.324 152.402 39.6763 151.413 40.3363C150.425 40.9964 149.654 41.9345 149.198 43.0323C148.743 44.1301 148.623 45.3382 148.854 46.504C149.085 47.6698 149.657 48.741 150.496 49.5822C151.336 50.4234 152.406 50.9969 153.572 51.2303C154.737 51.4636 155.946 51.3463 157.045 50.8931C158.144 50.44 159.083 49.6713 159.746 48.6843C160.408 47.6973 160.762 46.5362 160.765 45.3478C160.766 43.7519 160.133 42.2208 159.006 41.0912C157.878 39.9616 156.348 39.326 154.752 39.324Z" fill="url(#paint11_linear_1_11879)"/>
<path d="M273.409 93.856C293.517 73.7506 293.517 41.1534 273.409 21.048C253.3 0.94267 220.698 0.942667 200.589 21.048C180.481 41.1534 180.481 73.7506 200.589 93.856C220.698 113.961 253.3 113.961 273.409 93.856Z" fill="url(#paint12_linear_1_11879)"/>
<path d="M227.812 62.8998L223.366 65.4342C223.086 65.594 222.988 65.9509 223.148 66.2313L234.163 85.5472C234.323 85.8276 234.68 85.9253 234.96 85.7655L239.406 83.2311C239.686 83.0712 239.784 82.7143 239.624 82.4339L228.609 63.118C228.449 62.8376 228.092 62.7399 227.812 62.8998Z" fill="url(#paint13_linear_1_11879)"/>
<path d="M233.124 71.1426L231.478 72.0811L228.897 67.5585L231.611 68.4897L233.124 71.1426Z" fill="url(#paint14_linear_1_11879)"/>
<path d="M233.537 70.9074L231.478 72.0811L228.897 67.5585L231.611 68.4897L233.537 70.9074Z" fill="url(#paint15_linear_1_11879)"/>
<path d="M234.536 70.3617L233.233 71.0892C233.205 71.1052 233.172 71.1121 233.139 71.1091C233.106 71.106 233.075 71.0932 233.049 71.0723L229.03 67.7912L230.881 67.2092L234.536 70.0829C234.559 70.0977 234.579 70.1183 234.592 70.1427C234.606 70.1671 234.613 70.1945 234.613 70.2223C234.613 70.2502 234.606 70.2775 234.592 70.3019C234.579 70.3263 234.559 70.3469 234.536 70.3617Z" fill="url(#paint16_linear_1_11879)"/>
<path d="M226.164 63.8395L221.719 66.3739C221.438 66.5337 221.341 66.8906 221.5 67.171L232.515 86.4869C232.675 86.7673 233.032 86.865 233.313 86.7052L237.758 84.1708C238.039 84.0109 238.137 83.654 237.977 83.3736L226.962 64.0577C226.802 63.7773 226.445 63.6796 226.164 63.8395Z" fill="url(#paint17_linear_1_11879)"/>
<path d="M223.345 69.3869L230.537 67.3693C230.801 67.303 231.032 67.1408 231.184 66.914C231.336 66.6873 231.398 66.4122 231.359 66.1422L231.14 64.9127L221.57 66.6102L221.914 68.5672C221.948 68.7185 222.013 68.8611 222.106 68.9858C222.198 69.1106 222.315 69.2149 222.449 69.2919C222.584 69.369 222.733 69.4173 222.887 69.4336C223.042 69.45 223.197 69.434 223.345 69.3869Z" fill="url(#paint18_linear_1_11879)"/>
<path d="M219.884 67.6239L233.08 65.2983C233.375 65.2465 233.657 65.1371 233.909 64.9765C234.161 64.8158 234.38 64.607 234.551 64.362C234.723 64.117 234.844 63.8405 234.909 63.5485C234.974 63.2564 234.981 62.9545 234.929 62.6599L234.604 60.8193L216.927 63.9355L217.252 65.7761C217.358 66.3693 217.694 66.8966 218.187 67.2429C218.68 67.5891 219.29 67.7261 219.884 67.6239Z" fill="url(#paint19_linear_1_11879)"/>
<path d="M203.847 51.9462C203.99 50.2027 204.427 49.2545 205.147 49.1284L216.032 47.2078L219.164 63.3656L208.007 65.3347C207.279 65.4608 206.551 64.7188 205.824 63.1304C205.066 61.3746 204.527 59.5323 204.218 57.645C203.86 55.768 203.736 53.8539 203.847 51.9462Z" fill="url(#paint20_linear_1_11879)"/>
<g opacity="0.1">
<path d="M208.31 49.4266L208.397 49.9116L205.048 50.5009C205.09 50.3193 205.142 50.1404 205.206 49.965L208.31 49.4266Z" fill="black"/>
<path d="M208.516 50.5979L208.603 51.0829L204.863 51.7401C204.88 51.5606 204.897 51.386 204.919 51.2236L208.516 50.5979Z" fill="black"/>
<path d="M208.722 51.7692L208.81 52.2542L204.815 52.9598C204.815 52.7852 204.815 52.6155 204.815 52.4482L208.722 51.7692Z" fill="black"/>
<path d="M208.931 52.9404L209.016 53.4254L204.849 54.1529C204.849 53.9832 204.832 53.8134 204.827 53.6485L208.931 52.9404Z" fill="black"/>
<path d="M209.137 54.1118L209.224 54.5968L204.946 55.3583C204.929 55.1909 204.914 55.0236 204.9 54.8587L209.137 54.1118Z" fill="black"/>
<path d="M209.343 55.2903L209.43 55.7753L205.091 56.5392C205.067 56.3743 205.043 56.2069 205.023 56.042L209.343 55.2903Z" fill="black"/>
<path d="M205.188 57.2303L209.554 56.4519L209.642 56.9369L205.285 57.7153C205.269 57.6329 205.254 57.5504 205.239 57.4728C205.225 57.3952 205.21 57.3031 205.188 57.2303Z" fill="black"/>
<path d="M209.756 57.6232L209.843 58.1082L205.523 58.8696C205.487 58.7096 205.45 58.5447 205.417 58.3846L209.756 57.6232Z" fill="black"/>
<path d="M209.962 58.7944L210.049 59.2794L205.809 60.0263C205.766 59.8663 205.724 59.7062 205.683 59.5413L209.962 58.7944Z" fill="black"/>
<path d="M210.168 59.9657L210.255 60.4507L206.151 61.1782C206.1 61.0206 206.049 60.8605 206.001 60.6932L210.168 59.9657Z" fill="black"/>
<path d="M210.374 61.1346L210.461 61.6196L206.564 62.3229C206.501 62.1701 206.44 62.0101 206.379 61.8379L210.374 61.1346Z" fill="black"/>
<path d="M210.583 62.3059L210.668 62.7909L207.071 63.4238C206.996 63.2783 206.918 63.1207 206.843 62.9558L210.583 62.3059Z" fill="black"/>
<path d="M210.789 63.4772L210.876 63.9622L207.772 64.5102C207.652 64.3679 207.541 64.218 207.439 64.0616L210.789 63.4772Z" fill="black"/>
</g>
<path d="M207.885 50.2123C208.038 48.8106 208.455 47.101 209.583 46.9022L223.165 44.5087L226.619 63.4989L212.947 65.9094C211.819 66.1083 210.842 64.6411 210.221 63.3777C209.399 61.7044 208.705 59.4176 208.269 56.9344C207.832 54.4512 207.686 52.065 207.885 50.2123Z" fill="url(#paint21_linear_1_11879)"/>
<path d="M223.039 44.5281L223.267 44.4893H223.284C229.276 43.727 235.066 41.8221 240.34 38.8778C245.99 35.7678 250.954 31.5478 254.933 26.4715L255.362 25.9186L262.811 68.1599L262.219 67.7888C256.35 64.0907 252.382 62.2719 248.52 61.5081C245.401 60.8921 241.819 60.7612 234.487 62.1192L226.619 63.5063H226.607C226.566 63.5063 226.449 63.5257 226.391 63.5378C224.744 63.8264 223.214 57.6862 222.634 54.4004C222.055 51.1145 221.392 44.8191 223.039 44.5281Z" fill="url(#paint22_linear_1_11879)"/>
<path opacity="0.3" d="M240.674 42.0086C246.524 38.782 251.709 34.476 255.955 29.3185L256.197 30.7395C251.972 35.6852 246.889 39.8288 241.194 42.9713C236.046 45.8353 230.461 47.8319 224.664 48.8811C223.793 49.033 222.924 49.1616 222.057 49.2666H222.021C222.001 48.8883 221.989 48.5173 221.987 48.1584C228.315 47.4042 234.778 45.2751 240.674 42.0086Z" fill="white"/>
<path d="M263.524 67.6996C267.486 67.0012 269.055 57.1264 267.03 45.6436C265.005 34.1609 260.152 25.4184 256.191 26.1168C252.229 26.8152 250.66 36.69 252.685 48.1728C254.71 59.6555 259.563 68.398 263.524 67.6996Z" fill="url(#paint23_linear_1_11879)"/>
<path d="M251.836 42.4256L253.851 53.8572L259.67 52.1475L257.89 42.0449L251.836 42.4256Z" fill="url(#paint24_linear_1_11879)"/>
<g opacity="0.1">
<path d="M257.743 49.1832L253.211 50.2443L253.274 50.5134L257.806 49.4524L257.743 49.1832Z" fill="#C1272D"/>
</g>
<g opacity="0.1">
<path d="M257.053 45.205L252.431 45.7576L252.464 46.0321L257.085 45.4794L257.053 45.205Z" fill="#C1272D"/>
</g>
<path d="M257.89 42.0448C257.07 42.1879 256.804 44.5668 257.296 47.358C257.788 50.1492 258.853 52.2929 259.673 52.1474C260.493 52.0019 260.757 49.6254 260.265 46.8342C259.772 44.043 258.71 41.8993 257.89 42.0448Z" fill="url(#paint25_linear_1_11879)"/>
<path d="M258.062 43.0295C257.402 43.1459 257.189 45.0617 257.577 47.3072C257.965 49.5528 258.829 51.277 259.488 51.1606C260.148 51.0442 260.361 49.1308 259.973 46.8853C259.585 44.6397 258.722 42.9228 258.062 43.0295Z" fill="white"/>
<path d="M258.363 44.7246C257.977 44.7925 257.854 45.908 258.084 47.2175C258.315 48.527 258.812 49.5358 259.2 49.4679C259.588 49.4 259.709 48.2821 259.476 46.9725C259.243 45.663 258.746 44.6567 258.363 44.7246Z" fill="url(#paint26_linear_1_11879)"/>
<path d="M263.64 68.3854C264.822 68.1768 265.823 67.345 266.626 65.9167C267.334 64.6484 267.863 62.9364 268.2 60.8242C268.872 56.5853 268.685 51.1508 267.715 45.5248C266.745 39.8987 265.03 34.731 262.944 30.9747C261.911 29.1099 260.827 27.6815 259.728 26.7333C258.486 25.6639 257.259 25.2274 256.09 25.4335C254.921 25.6397 253.907 26.4739 253.104 27.9022C252.396 29.1705 251.865 30.8825 251.53 32.9947C250.856 37.2336 251.045 42.6681 252.015 48.2941C252.986 53.9202 254.7 59.0879 256.784 62.8442C257.819 64.7066 258.901 66.1349 260.002 67.0831C261.232 68.1429 262.462 68.5842 263.64 68.3854ZM256.306 26.8012C257.887 26.5224 259.866 28.2926 261.732 31.6513C263.745 35.2742 265.384 40.2867 266.34 45.7673C267.295 51.2478 267.48 56.5198 266.825 60.6132C266.221 64.4108 264.967 66.7485 263.386 67.0274C261.804 67.3062 259.828 65.5384 257.96 62.1773C255.949 58.5544 254.31 53.5419 253.352 48.0613C252.394 42.5808 252.209 37.3088 252.867 33.2154C253.475 29.4081 254.727 27.0704 256.308 26.7915L256.306 26.8012Z" fill="url(#paint27_linear_1_11879)"/>
<path d="M137.035 152.941L152.133 150.273C161.238 148.668 165.788 151.345 165.788 159.11C165.788 164.035 163.605 166.938 159.846 169.205V169.419L167.876 183.484L157.381 185.334L150.859 173.364L147.11 174.026V187.143L137.035 188.909V152.941ZM150.799 167.326C154.386 166.693 155.778 164.734 155.778 161.36C155.778 157.987 154.323 156.753 150.636 157.395L146.998 158.038V167.995L150.799 167.326Z" fill="white"/>
<path d="M172.108 146.757L196.954 142.377V149.604L182.07 152.228V159.081L193.687 157.034V164.101L182.07 166.147V173.75L197.427 171.041V178.268L172.108 182.734V146.757Z" fill="white"/>
<path d="M203.219 141.272L227.958 136.906V144.133L213.287 146.721V154.859L224.747 152.839V159.905L213.287 161.925V175.474L203.222 177.249L203.219 141.272Z" fill="white"/>
<path d="M233.323 135.968L258.167 131.589V138.815L243.267 141.439V148.292L254.887 146.243V153.309L243.267 155.358V162.961L258.635 160.252V167.479L233.323 171.933V135.968Z" fill="white"/>
<path d="M264.421 130.483L279.519 127.815C288.622 126.212 293.174 128.889 293.174 136.652C293.174 141.577 290.977 144.48 287.23 146.747V146.956L295.263 161.021L284.768 162.871L278.234 150.906L274.487 151.563V164.68L264.421 166.455V130.483ZM278.193 144.868C281.78 144.235 283.172 142.276 283.172 138.902C283.172 135.529 281.717 134.295 278.033 134.937L274.395 135.58V145.537L278.193 144.868Z" fill="white"/>
<path d="M323.427 120.079L334.188 118.183L346.664 151.959L336.383 153.772L333.977 147.077L322.197 149.153L319.949 156.67L310.846 158.276L323.427 120.079ZM324.123 142.336L331.94 140.956L328.139 129.69L327.923 129.726L324.123 142.336Z" fill="white"/>
<path d="M137.035 196.749L165.32 191.763V200.025L148.546 202.974V212.278L161.643 209.967V218.057L148.546 220.368V235.854L137.035 237.894V196.749Z" fill="white"/>
<path d="M171.444 190.684L188.71 187.638C199.118 185.805 204.32 188.865 204.32 197.74C204.32 203.374 201.81 206.694 197.529 209.284V209.526L206.714 225.599L194.708 227.709L187.24 214.037L182.955 214.791V229.789L171.444 231.817V190.684ZM187.177 207.13C191.281 206.403 192.872 204.167 192.872 200.311C192.872 196.455 191.218 195.032 186.995 195.776L182.831 196.504V207.896L187.177 207.13Z" fill="white"/>
<path d="M211.791 183.573L223.362 181.534V222.665L211.791 224.704V183.573Z" fill="white"/>
<path d="M231.322 180.128L259.729 175.117V183.382L242.71 186.382V194.217L255.993 191.877V199.957L242.71 202.297V210.991L260.279 207.891V216.156L231.322 221.248V180.128Z" fill="white"/>
<path d="M266.891 173.856L279.321 171.674L292.605 192.347L292.789 192.316V169.29L302.585 167.563V208.699L291.625 210.639L276.932 187.582L276.689 187.626V213.263L266.893 214.989L266.891 173.856Z" fill="white"/>
<path d="M310.358 166.191L326.155 163.407C339.01 161.14 346.664 165.24 346.664 179.381V180.787C346.664 194.682 339.012 202.275 326.216 204.53L310.358 207.339V166.191ZM325.973 196.426C331.729 195.412 334.544 192.039 334.544 183.406V181.325C334.544 172.571 331.299 170.634 325.667 171.625L321.872 172.295V197.153L325.973 196.426Z" fill="white"/>
<defs>
<linearGradient id="paint0_linear_1_11879" x1="237" y1="45.3478" x2="237" y2="327.583" gradientUnits="userSpaceOnUse">
<stop stop-color="#1347FF"/>
<stop offset="1" stop-color="#0032E7"/>
</linearGradient>
<linearGradient id="paint1_linear_1_11879" x1="346.788" y1="61.0182" x2="359.078" y2="73.3101" gradientUnits="userSpaceOnUse">
<stop stop-color="#A361FF"/>
<stop offset="1" stop-color="#571CA8"/>
</linearGradient>
<linearGradient id="paint2_linear_1_11879" x1="362.022" y1="92.3252" x2="376.392" y2="106.7" gradientUnits="userSpaceOnUse">
<stop stop-color="#A361FF"/>
<stop offset="1" stop-color="#571CA8"/>
</linearGradient>
<linearGradient id="paint3_linear_1_11879" x1="313.085" y1="35.5967" x2="327.455" y2="49.9696" gradientUnits="userSpaceOnUse">
<stop stop-color="#A361FF"/>
<stop offset="1" stop-color="#571CA8"/>
</linearGradient>
<linearGradient id="paint4_linear_1_11879" x1="87.7243" y1="213.758" x2="100.014" y2="226.047" gradientUnits="userSpaceOnUse">
<stop stop-color="#A361FF"/>
<stop offset="1" stop-color="#571CA8"/>
</linearGradient>
<linearGradient id="paint5_linear_1_11879" x1="105.384" y1="259.75" x2="119.754" y2="274.123" gradientUnits="userSpaceOnUse">
<stop stop-color="#A361FF"/>
<stop offset="1" stop-color="#571CA8"/>
</linearGradient>
<linearGradient id="paint6_linear_1_11879" x1="145.924" y1="292.391" x2="158.214" y2="304.681" gradientUnits="userSpaceOnUse">
<stop stop-color="#A361FF"/>
<stop offset="1" stop-color="#571CA8"/>
</linearGradient>
<linearGradient id="paint7_linear_1_11879" x1="346.788" y1="260.488" x2="359.078" y2="272.78" gradientUnits="userSpaceOnUse">
<stop stop-color="#A361FF"/>
<stop offset="1" stop-color="#571CA8"/>
</linearGradient>
<linearGradient id="paint8_linear_1_11879" x1="373.484" y1="217.499" x2="387.855" y2="231.872" gradientUnits="userSpaceOnUse">
<stop stop-color="#A361FF"/>
<stop offset="1" stop-color="#571CA8"/>
</linearGradient>
<linearGradient id="paint9_linear_1_11879" x1="86.5623" y1="107.372" x2="98.8522" y2="119.662" gradientUnits="userSpaceOnUse">
<stop stop-color="#A361FF"/>
<stop offset="1" stop-color="#571CA8"/>
</linearGradient>
<linearGradient id="paint10_linear_1_11879" x1="115.405" y1="69.4693" x2="129.776" y2="83.8422" gradientUnits="userSpaceOnUse">
<stop stop-color="#A361FF"/>
<stop offset="1" stop-color="#571CA8"/>
</linearGradient>
<linearGradient id="paint11_linear_1_11879" x1="148.606" y1="39.1907" x2="160.896" y2="51.4801" gradientUnits="userSpaceOnUse">
<stop stop-color="#A361FF"/>
<stop offset="1" stop-color="#571CA8"/>
</linearGradient>
<linearGradient id="paint12_linear_1_11879" x1="199.307" y1="19.7651" x2="273.44" y2="93.9095" gradientUnits="userSpaceOnUse">
<stop stop-color="#0437EC"/>
<stop offset="1" stop-color="#0127AE"/>
</linearGradient>
<linearGradient id="paint13_linear_1_11879" x1="225.625" y1="64.635" x2="238.215" y2="85.0951" gradientUnits="userSpaceOnUse">
<stop stop-color="#E6E6E6"/>
<stop offset="1" stop-color="#CCCCCC"/>
</linearGradient>
<linearGradient id="paint14_linear_1_11879" x1="231.323" y1="65.7734" x2="232.658" y2="70.8051" gradientUnits="userSpaceOnUse">
<stop stop-color="#FF0000"/>
<stop offset="1" stop-color="#DB0000"/>
</linearGradient>
<linearGradient id="paint15_linear_1_11879" x1="234.177" y1="68.0715" x2="230.269" y2="68.7495" gradientUnits="userSpaceOnUse">
<stop stop-color="#FFCB00"/>
<stop offset="1" stop-color="#FB9A00"/>
</linearGradient>
<linearGradient id="paint16_linear_1_11879" x1="232.213" y1="65.7437" x2="233.37" y2="70.0965" gradientUnits="userSpaceOnUse">
<stop stop-color="#FFCB00"/>
<stop offset="1" stop-color="#FB9A00"/>
</linearGradient>
<linearGradient id="paint17_linear_1_11879" x1="223.262" y1="64.811" x2="236.327" y2="85.199" gradientUnits="userSpaceOnUse">
<stop stop-color="#EAEAEA"/>
<stop offset="1" stop-color="#DEDEDE"/>
</linearGradient>
<linearGradient id="paint18_linear_1_11879" x1="227.274" y1="64.2282" x2="227.822" y2="67.3843" gradientUnits="userSpaceOnUse">
<stop stop-color="#EAEAEA"/>
<stop offset="1" stop-color="#DEDEDE"/>
</linearGradient>
<linearGradient id="paint19_linear_1_11879" x1="226.935" y1="62.2771" x2="227.508" y2="65.5781" gradientUnits="userSpaceOnUse">
<stop stop-color="#FFCB00"/>
<stop offset="1" stop-color="#FB9A00"/>
</linearGradient>
<linearGradient id="paint20_linear_1_11879" x1="210.569" y1="46.6649" x2="213.655" y2="64.4557" gradientUnits="userSpaceOnUse">
<stop stop-color="#FFCB00"/>
<stop offset="1" stop-color="#FB9A00"/>
</linearGradient>
<linearGradient id="paint21_linear_1_11879" x1="215.82" y1="43.7517" x2="219.44" y2="64.6224" gradientUnits="userSpaceOnUse">
<stop stop-color="#FFCB00"/>
<stop offset="1" stop-color="#FB9A00"/>
</linearGradient>
<linearGradient id="paint22_linear_1_11879" x1="238.782" y1="32.2415" x2="244.829" y2="67.1052" gradientUnits="userSpaceOnUse">
<stop stop-color="#EAEAEA"/>
<stop offset="1" stop-color="#DEDEDE"/>
</linearGradient>
<linearGradient id="paint23_linear_1_11879" x1="267.032" y1="45.6532" x2="252.359" y2="48.2408" gradientUnits="userSpaceOnUse">
<stop stop-color="white"/>
<stop offset="1" stop-color="#DEDEDE"/>
</linearGradient>
<linearGradient id="paint24_linear_1_11879" x1="260.561" y1="47.9019" x2="254.295" y2="48.989" gradientUnits="userSpaceOnUse">
<stop stop-color="#FFCB00"/>
<stop offset="1" stop-color="#FB9A00"/>
</linearGradient>
<linearGradient id="paint25_linear_1_11879" x1="261.99" y1="47.6541" x2="258.857" y2="48.1976" gradientUnits="userSpaceOnUse">
<stop stop-color="#FFCB00"/>
<stop offset="1" stop-color="#FB9A00"/>
</linearGradient>
<linearGradient id="paint26_linear_1_11879" x1="261.961" y1="47.6591" x2="258.662" y2="48.2315" gradientUnits="userSpaceOnUse">
<stop stop-color="#FFCB00"/>
<stop offset="1" stop-color="#FB9A00"/>
</linearGradient>
<linearGradient id="paint27_linear_1_11879" x1="256.877" y1="23.8349" x2="264.738" y2="69.1578" gradientUnits="userSpaceOnUse">
<stop stop-color="#FFCB00"/>
<stop offset="1" stop-color="#FB9A00"/>
</linearGradient>
</defs>
</svg>
