<svg width="24" height="24" viewBox="0 0 24 24" fill="none" xmlns="http://www.w3.org/2000/svg">
<path d="M12.7396 10.432C12.4016 10.193 12.3206 9.72502 12.5586 9.38702L13.7857 7.64703C13.8037 7.62203 13.8296 7.60802 13.8496 7.58602C13.8946 7.53602 13.9386 7.48403 13.9956 7.44703C14.1626 7.34003 14.3667 7.30302 14.5607 7.34602C14.6617 7.36802 14.7557 7.41003 14.8377 7.47003L16.5597 8.68302C16.8977 8.92202 16.9786 9.39002 16.7406 9.72802C16.5016 10.066 16.0346 10.148 15.6946 9.90902L15.4536 9.73902L15.8327 11.887C15.9047 12.295 15.6326 12.684 15.2246 12.756C15.1806 12.764 15.1366 12.768 15.0936 12.768C14.7366 12.768 14.4197 12.512 14.3567 12.148L13.9746 9.98303L13.7866 10.25C13.6406 10.457 13.4086 10.567 13.1726 10.567C13.0216 10.568 12.8716 10.524 12.7396 10.432ZM8.83363 9.21803C8.61363 7.97303 8.76567 6.99902 9.29567 6.24102C9.82667 5.48202 10.6917 5.00703 11.9367 4.78703L15.5707 4.14602C18.0327 3.71102 19.5666 4.78502 20.0006 7.24902L20.6416 10.883C20.8616 12.128 20.7096 13.102 20.1786 13.861C19.6486 14.619 18.7836 15.094 17.5386 15.314L13.9047 15.955C13.5487 16.018 13.2106 16.05 12.8926 16.05C11.0196 16.05 9.84562 14.96 9.47462 12.853L8.83363 9.21803ZM10.3107 8.95802L10.9517 12.592C11.2427 14.238 11.9957 14.767 13.6447 14.478L17.2787 13.837C18.1117 13.69 18.6586 13.417 18.9496 13.001C19.2406 12.585 19.3107 11.978 19.1647 11.145L18.5237 7.51103C18.2827 6.14703 17.7237 5.54902 16.6027 5.54902C16.3707 5.54902 16.1137 5.57502 15.8307 5.62502L12.1967 6.26603C11.3637 6.41303 10.8166 6.68702 10.5256 7.10302C10.2336 7.51702 10.1637 8.12502 10.3107 8.95802ZM21.7377 16.65C21.8097 17.058 21.5377 17.447 21.1297 17.519L10.7136 19.352C10.5386 20.701 9.39565 21.75 7.99965 21.75C6.48265 21.75 5.24965 20.517 5.24965 19C5.24965 17.76 6.07961 16.721 7.20961 16.379L5.17164 4.78002C5.05264 4.10302 4.40064 3.65203 3.71864 3.76803L3.12465 3.86903C2.71965 3.93603 2.32863 3.66303 2.26063 3.25503C2.19163 2.84603 2.46565 2.45902 2.87465 2.39002L3.46461 2.29002C4.94161 2.03102 6.38569 3.03002 6.64869 4.51902L8.72865 16.359C9.51765 16.578 10.1647 17.132 10.4987 17.866L20.8696 16.04C21.2786 15.969 21.6677 16.242 21.7377 16.65ZM9.24965 19C9.24965 18.311 8.68865 17.75 7.99965 17.75C7.31065 17.75 6.74965 18.311 6.74965 19C6.74965 19.689 7.31065 20.25 7.99965 20.25C8.68865 20.25 9.24965 19.689 9.24965 19Z" fill="#25314C"/>
</svg>
