<svg width="15" height="16" viewBox="0 0 15 16" fill="none" xmlns="http://www.w3.org/2000/svg">
<path d="M3.46225 12.7C3.081 12.7 2.72475 12.5687 2.4685 12.325C2.1435 12.0187 1.98725 11.5562 2.0435 11.0562L2.27475 9.03122C2.3185 8.64997 2.54975 8.14372 2.8185 7.86872L7.94975 2.43747C9.231 1.08122 10.5685 1.04372 11.9247 2.32497C13.281 3.60622 13.3185 4.94372 12.0372 6.29997L6.906 11.7312C6.6435 12.0125 6.156 12.275 5.77475 12.3375L3.76225 12.6812C3.656 12.6875 3.56225 12.7 3.46225 12.7ZM9.956 2.31872C9.47475 2.31872 9.056 2.61872 8.631 3.06872L3.49975 8.50622C3.37475 8.63747 3.231 8.94997 3.206 9.13122L2.97475 11.1562C2.94975 11.3625 2.99975 11.5312 3.11225 11.6375C3.22475 11.7437 3.3935 11.7812 3.59975 11.75L5.61225 11.4062C5.7935 11.375 6.0935 11.2125 6.2185 11.0812L11.3497 5.64997C12.1247 4.82497 12.406 4.06247 11.2747 2.99997C10.7747 2.51872 10.3435 2.31872 9.956 2.31872Z" fill="#6447CE"/>
<path d="M10.8373 7.34378C10.8248 7.34378 10.806 7.34378 10.7935 7.34378C8.84353 7.15003 7.27478 5.66878 6.97478 3.73128C6.93728 3.47503 7.11228 3.23753 7.36853 3.19378C7.62478 3.15628 7.86228 3.33128 7.90603 3.58753C8.14353 5.10003 9.36853 6.26253 10.8935 6.41253C11.1498 6.43753 11.3373 6.66878 11.3123 6.92503C11.281 7.16253 11.0748 7.34378 10.8373 7.34378Z" fill="#6447CE"/>
<path d="M13.125 14.7188H1.875C1.61875 14.7188 1.40625 14.5063 1.40625 14.25C1.40625 13.9938 1.61875 13.7812 1.875 13.7812H13.125C13.3813 13.7812 13.5938 13.9938 13.5938 14.25C13.5938 14.5063 13.3813 14.7188 13.125 14.7188Z" fill="#6447CE"/>
</svg>
