<svg width="20" height="20" viewBox="0 0 20 20" fill="none" xmlns="http://www.w3.org/2000/svg">
<path d="M2.5 2.5L17.5 17.5" stroke="#6B7280" stroke-width="1.5" stroke-linecap="round" stroke-linejoin="round"/>
<path d="M8.8207 8.82251C8.50797 9.13502 8.33219 9.55897 8.33203 10.0011C8.33188 10.4432 8.50736 10.8673 8.81987 11.18C9.13238 11.4927 9.55633 11.6685 9.99845 11.6687C10.4406 11.6688 10.8646 11.4934 11.1774 11.1808" stroke="#6B7280" stroke-width="1.5" stroke-linecap="round" stroke-linejoin="round"/>
<path d="M7.80283 4.47084C8.51734 4.26644 9.25715 4.16404 10.0003 4.16668C13.3337 4.16668 16.1112 6.11084 18.3337 10C17.6853 11.1342 16.9903 12.1033 16.2478 12.9067M14.4645 14.4575C13.1053 15.3742 11.6187 15.8333 10.0003 15.8333C6.66699 15.8333 3.88949 13.8892 1.66699 10C2.80783 8.00418 4.09449 6.52084 5.52699 5.54918" stroke="#6B7280" stroke-width="1.5" stroke-linecap="round" stroke-linejoin="round"/>
</svg>
