<svg width="18" height="18" viewBox="0 0 18 18" fill="none" xmlns="http://www.w3.org/2000/svg">
<path d="M9 0C4.03738 0 0 4.03738 0 9C0 13.9626 4.03738 18 9 18C13.9626 18 18 13.9626 18 9C18 4.03738 13.9626 0 9 0ZM5.73641 1.75623L7.05716 2.75024L6.18571 3.09523C6.05872 3.1455 5.95621 3.24309 5.89971 3.36741L5.43379 4.39302L3.49077 5.36421C3.32877 5.44518 3.21968 5.60362 3.20179 5.78387L3.03187 7.49689L2.16763 6.92072L1.76636 5.71465C2.56507 3.96288 3.98183 2.54988 5.73641 1.75623ZM5.30307 10.965L3.99727 9.62223V8.94315L5.15338 8.92786L6.50043 10.4094C6.57622 10.4928 6.6767 10.5497 6.78716 10.5718L7.63812 10.7421L7.17089 11.2094C7.07203 11.3083 7.01648 11.4424 7.01648 11.5823V12.1915L6.06343 12.9062C5.93114 13.0055 5.85309 13.161 5.8525 13.3262L5.45242 12.8461V11.3326C5.45238 11.1953 5.3988 11.0634 5.30307 10.965ZM9 16.9453C4.61893 16.9453 1.05469 13.3811 1.05469 9C1.05469 8.45279 1.1103 7.91831 1.21616 7.40194L1.22404 7.42556C1.26109 7.53694 1.33425 7.63274 1.43191 7.69785L2.94258 8.70497V9.83637C2.94258 9.97369 2.99612 10.1056 3.09189 10.204L4.3977 11.5468V13.037C4.3977 13.1604 4.44094 13.2798 4.51993 13.3746L5.9747 15.1203C6.0769 15.2429 6.22638 15.3101 6.37991 15.3101C6.43996 15.3101 6.50064 15.2998 6.55935 15.2786C6.76811 15.203 6.90718 15.0047 6.90718 14.7827V13.5918L7.86023 12.877C7.99302 12.7774 8.07117 12.6211 8.07117 12.4552V11.8006L9.08044 10.791C9.21793 10.6535 9.26856 10.4515 9.2122 10.2654C9.15581 10.0793 9.00162 9.93927 8.81093 9.90112L7.16411 9.57164L5.77399 8.0427C5.67243 7.931 5.52797 7.86881 5.37683 7.87015L4.05292 7.88766L4.22258 6.17759L6.0724 5.25298C6.1805 5.19894 6.26674 5.10943 6.31673 4.99939L6.77187 3.99755L8.31976 3.38474C8.49712 3.31453 8.62274 3.15397 8.64826 2.96494C8.67379 2.7759 8.59518 2.58778 8.44277 2.4731L6.92438 1.33031C7.58633 1.15098 8.28207 1.05469 9 1.05469C11.7486 1.05469 14.1754 2.45777 15.6026 4.58515L14.482 4.97106L13.0934 4.73952L12.6379 4.05657C12.4882 3.83207 12.1931 3.75683 11.9541 3.8822L8.28067 5.80982C8.0859 5.91202 7.97505 6.12432 8.00248 6.34254C8.0299 6.56075 8.18986 6.73903 8.40382 6.78987L10.7809 7.35462L11.465 8.41743C11.5873 8.60748 11.8171 8.69843 12.0364 8.64359L12.9738 8.40909L13.4177 8.705V9.58676C13.4177 9.71937 13.4677 9.84713 13.5576 9.94454L15.102 11.617L15.1022 14.0824C13.6436 15.8307 11.4497 16.9453 9 16.9453ZM16.1568 11.4106C16.1568 11.2781 16.1068 11.1503 16.0168 11.0529L14.4724 9.3805V8.42273C14.4724 8.24639 14.3843 8.08172 14.2375 7.98395L13.3646 7.40211C13.241 7.31971 13.0883 7.29323 12.9442 7.32934L12.1473 7.52868L11.5528 6.60519C11.479 6.49062 11.3638 6.40905 11.2313 6.37755L10.0179 6.08931L12.0239 5.03673L12.3427 5.51472C12.4235 5.63593 12.5509 5.7183 12.6947 5.74228L14.4405 6.03337C14.5271 6.04782 14.616 6.04041 14.699 6.01182L16.1394 5.51577C16.6552 6.56838 16.9453 7.75086 16.9453 9C16.9453 10.2352 16.6619 11.4054 16.1568 12.4492L16.1568 11.4106Z" fill="white"/>
</svg>
