<svg width="28" height="45" viewBox="0 0 28 45" fill="none" xmlns="http://www.w3.org/2000/svg">
<path d="M15.1187 34.2946C14.6023 34.2498 14.4382 33.8615 14.1702 34.2946L13.5379 34.1971L13.2217 34.5133C12.9536 34.0801 11.9757 34.2444 11.4633 34.2946C5.61692 34.7859 1.83984 36.8659 1.83984 39.5904C1.83984 43.1416 7.96233 44.9998 14.0109 44.9998C20.0594 44.9998 26.1819 43.1416 26.1819 39.5904C26.1819 36.8659 20.9651 34.7859 15.1187 34.2946ZM14.0109 24.5344C19.9776 24.5344 24.8296 19.681 24.8296 13.7157C24.8296 7.75033 19.9776 2.89697 14.0109 2.89697C8.04419 2.89697 3.19218 7.75033 3.19218 13.7157C3.19218 19.681 8.04419 24.5344 14.0109 24.5344Z" fill="url(#paint0_linear_1_6398)"/>
<path d="M13.8555 41.7689H13.8563C14.2401 41.7679 14.6081 41.6156 14.8798 41.3448C15.1515 41.0741 15.3046 40.7069 15.3053 40.3236V40.3231V26.4021C18.5179 26.0413 21.4829 24.4957 23.6122 22.0639C25.8017 19.5634 26.9389 16.3186 26.7871 13.0042C26.6353 9.68989 25.2061 6.56165 22.7971 4.27008C20.3883 1.97854 17.1851 0.7 13.854 0.7C10.5229 0.7 7.31981 1.97854 4.91093 4.27008C2.50201 6.56165 1.07281 9.68989 0.920979 13.0042C0.769152 16.3186 1.90642 19.5634 4.09589 22.0639C6.22518 24.4957 9.19017 26.0413 12.4028 26.4021V40.3211C12.4028 40.7055 12.5562 41.0739 12.8288 41.3453C13.1013 41.6166 13.4707 41.7689 13.8555 41.7689ZM8.26619 5.25479C9.92049 4.1542 11.8656 3.56667 13.8554 3.56665C16.5227 3.56966 19.0797 4.6264 20.9655 6.50385C22.8513 8.38128 23.9119 10.9265 23.9151 13.5812C23.9151 15.5615 23.3254 17.4975 22.2204 19.1443C21.1152 20.7913 19.5442 22.0751 17.7059 22.8334C15.8676 23.5916 13.8447 23.79 11.8931 23.4036C9.94142 23.0171 8.14888 22.0631 6.74205 20.6625C5.33525 19.2618 4.37733 17.4774 3.98924 15.535C3.60115 13.5926 3.80027 11.5792 4.56148 9.74941C5.32269 7.91959 6.61187 6.3554 8.26619 5.25479Z" fill="#222222" stroke="black" stroke-width="0.6"/>
<defs>
<linearGradient id="paint0_linear_1_6398" x1="14.0109" y1="44.9998" x2="14.0109" y2="2.89697" gradientUnits="userSpaceOnUse">
<stop offset="0.288834" stop-color="#C7C7C7" stop-opacity="0.49"/>
<stop offset="0.504218" stop-color="#04B50B" stop-opacity="0.753681"/>
<stop offset="0.9973" stop-color="#26FF2F"/>
</linearGradient>
</defs>
</svg>
