<svg width="27" height="45" viewBox="0 0 27 45" fill="none" xmlns="http://www.w3.org/2000/svg">
<path d="M14.9112 34.2946C14.3948 34.2498 14.2307 33.8615 13.9627 34.2946L13.3304 34.1971L13.0142 34.5133C12.7461 34.0801 11.7682 34.2444 11.2558 34.2946C5.4094 34.7859 1.63232 36.8659 1.63232 39.5904C1.63232 43.1416 7.75481 44.9998 13.8034 44.9998C19.8519 44.9998 25.9744 43.1416 25.9744 39.5904C25.9744 36.8659 20.7576 34.7859 14.9112 34.2946ZM13.8034 24.5344C19.7701 24.5344 24.6221 19.681 24.6221 13.7157C24.6221 7.75033 19.7701 2.89697 13.8034 2.89697C7.83667 2.89697 2.98466 7.75033 2.98466 13.7157C2.98466 19.681 7.83667 24.5344 13.8034 24.5344Z" fill="url(#paint0_linear_1_6395)"/>
<path d="M13.648 41.7689H13.6488C14.0326 41.7679 14.4006 41.6156 14.6722 41.3448C14.9439 41.0741 15.0971 40.7069 15.0977 40.3236V40.3231V26.4021C18.3104 26.0413 21.2754 24.4957 23.4047 22.0639C25.5941 19.5634 26.7314 16.3186 26.5796 13.0042C26.4277 9.68989 24.9985 6.56165 22.5896 4.27008C20.1807 1.97854 16.9776 0.7 13.6465 0.7C10.3154 0.7 7.11229 1.97854 4.70341 4.27008C2.29449 6.56165 0.865287 9.68989 0.71346 13.0042C0.561632 16.3186 1.6989 19.5634 3.88837 22.0639C6.01767 24.4957 8.98265 26.0413 12.1953 26.4021V40.3211C12.1953 40.7055 12.3487 41.0739 12.6212 41.3453C12.8938 41.6166 13.2632 41.7689 13.648 41.7689ZM8.05867 5.25479C9.71297 4.1542 11.658 3.56667 13.6479 3.56665C16.3152 3.56966 18.8722 4.6264 20.758 6.50385C22.6438 8.38128 23.7044 10.9265 23.7076 13.5812C23.7076 15.5615 23.1179 17.4975 22.0128 19.1443C20.9077 20.7913 19.3367 22.0751 17.4984 22.8334C15.6601 23.5916 13.6372 23.79 11.6856 23.4036C9.7339 23.0171 7.94136 22.0631 6.53454 20.6625C5.12773 19.2618 4.16981 17.4774 3.78172 15.535C3.39363 13.5926 3.59275 11.5792 4.35396 9.74941C5.11517 7.91959 6.40435 6.3554 8.05867 5.25479Z" fill="#222222" stroke="black" stroke-width="0.6"/>
<defs>
<linearGradient id="paint0_linear_1_6395" x1="13.8034" y1="44.9998" x2="13.8034" y2="2.89697" gradientUnits="userSpaceOnUse">
<stop offset="0.288834" stop-color="#C7C7C7" stop-opacity="0.49"/>
<stop offset="0.504218" stop-color="#FF0900"/>
<stop offset="0.9973" stop-color="#FF0900" stop-opacity="0.57"/>
</linearGradient>
</defs>
</svg>
