<svg width="31" height="16" viewBox="0 0 31 16" fill="none" xmlns="http://www.w3.org/2000/svg">
<path d="M30.9343 9.79338V14.1685H3.75977V8.02253H18.9866V2.026H22.8408C23.7058 2.026 24.4849 2.52416 24.8608 3.3032L26.5637 6.86759L29.3083 7.63748C29.5845 7.71902 29.8427 7.85037 30.0646 8.02246C30.5991 8.43464 30.9343 9.08233 30.9343 9.79338Z" />
<path d="M29.9101 8.3534C29.9101 7.20317 29.1694 6.12094 27.9538 5.76155L25.4071 5.04702L23.7918 1.66658C23.3354 0.720732 22.4053 0.133179 21.3641 0.133179H17.5095C17.2591 0.133179 17.0566 0.335948 17.0566 0.58609V3.90021H1.56795C0.703248 3.90021 0 4.60345 0 5.4679C0 6.33234 0.703248 7.03585 1.56795 7.03585H1.82976V12.7286C1.82976 12.9787 2.03234 13.1815 2.28267 13.1815H4.8831C5.10359 14.6976 6.40851 15.8669 7.98471 15.8669C9.56091 15.8669 10.8654 14.6975 11.0859 13.1815H19.9047C20.1252 14.6976 21.4301 15.8669 23.0064 15.8669C24.5826 15.8669 25.8871 14.6975 26.1076 13.1815H29.4572C29.7075 13.1815 29.9101 12.9787 29.9101 12.7286C29.9101 12.6434 29.9101 8.23842 29.9101 8.3534ZM29.0041 8.35166H28.8133C28.3608 8.35166 27.9924 7.98325 27.9924 7.53053V6.74723C28.1059 6.8024 28.2142 6.86602 28.3113 6.94143C28.7447 7.27536 29.0036 7.80252 29.0041 8.35166ZM21.3641 1.03894C22.0546 1.03894 22.672 1.43036 22.9754 2.05865L24.3681 4.9738H17.9629C17.9628 4.32869 17.9624 0.836233 17.9624 1.03894H21.3641ZM0.905824 5.4679C0.905824 5.10303 1.20302 4.80603 1.56795 4.80603H17.0566C17.0566 4.90857 17.0566 6.20253 17.0566 6.12983C16.2229 6.12983 4.67865 6.13003 1.56795 6.13003C1.20302 6.12996 0.905824 5.83296 0.905824 5.4679ZM2.73558 7.03578H17.0566V12.2756H11.0858C10.865 10.76 9.56065 9.5909 7.98478 9.5909C6.4089 9.5909 5.10417 10.76 4.88329 12.2756H2.73558V7.03578ZM7.98471 14.9611C6.75379 14.9611 5.75244 13.9597 5.75244 12.7291C5.75244 11.4981 6.75379 10.4968 7.98471 10.4968C9.21519 10.4968 10.2165 11.4981 10.2165 12.7291C10.2165 13.9597 9.21519 14.9611 7.98471 14.9611ZM23.0064 14.9611C21.7763 14.9611 20.7758 13.961 20.7743 12.7316C20.7743 12.7305 20.7749 12.7296 20.7749 12.7285C20.7749 12.7276 20.7743 12.7268 20.7743 12.7258C20.7761 11.4964 21.7765 10.4967 23.0063 10.4967C24.2346 10.4967 25.234 11.4948 25.2375 12.7229C25.2375 12.7249 25.2364 12.7265 25.2364 12.7285C25.2364 12.7307 25.2375 12.7324 25.2376 12.7345C25.2345 13.9626 24.2349 14.9611 23.0064 14.9611ZM26.1074 12.2756C25.8866 10.76 24.5823 9.5909 23.0064 9.5909C21.4305 9.5909 20.1258 10.76 19.9049 12.2756H17.9625C17.9625 12.1855 17.9628 7.35193 17.963 5.87963H25.0212L27.0866 6.45899V7.53046C27.0866 8.48269 27.8611 9.25742 28.8133 9.25742H29.0044V12.2756H26.1074Z" fill="white"/>
</svg>
