<svg width="24" height="24" viewBox="0 0 24 24" fill="none" xmlns="http://www.w3.org/2000/svg">
<path d="M17.0532 21.75H6.94817C5.37717 21.75 4.03217 20.628 3.75017 19.083L2.29522 11.0999C2.11722 10.1189 2.4842 9.11599 3.2542 8.483L9.93621 2.98995C11.1332 2.00595 12.8702 2.00595 14.0672 2.98995L20.7492 8.483C21.5192 9.11599 21.8862 10.1189 21.7082 11.0999L20.2532 19.083C19.9692 20.628 18.6242 21.75 17.0532 21.75ZM12.0002 3.75094C11.6042 3.75094 11.2101 3.88291 10.8881 4.14791L4.20623 9.64095C3.85523 9.92895 3.68819 10.385 3.77019 10.831L5.22515 18.813C5.37615 19.645 6.1012 20.249 6.9472 20.249H17.0522C17.8982 20.249 18.6222 19.645 18.7742 18.813L20.2292 10.8299C20.3102 10.3839 20.1431 9.92895 19.7931 9.64095L13.1111 4.14791C12.7901 3.88391 12.3962 3.75094 12.0002 3.75094ZM19.5131 18.948H19.5231H19.5131ZM14.7502 17C14.7502 16.586 14.4142 16.25 14.0002 16.25H10.0002C9.58617 16.25 9.25017 16.586 9.25017 17C9.25017 17.414 9.58617 17.75 10.0002 17.75H14.0002C14.4142 17.75 14.7502 17.414 14.7502 17Z" fill="#25314C"/>
</svg>
