<svg width="24" height="24" viewBox="0 0 24 24" fill="none" xmlns="http://www.w3.org/2000/svg">
<path d="M14.695 5.16282C15.5126 5.01416 16.0862 4.91022 16.538 4.85334C16.9856 4.79699 17.2472 4.79652 17.4435 4.82588C18.5535 4.99181 19.478 5.76339 19.8398 6.82576C19.9038 7.01371 19.9502 7.27112 19.9748 7.7216C19.9997 8.17628 20 8.75924 20 9.59023V14.4099C20 15.2409 19.9997 15.8238 19.9748 16.2785C19.9502 16.729 19.9038 16.9864 19.8398 17.1744C19.478 18.2367 18.5535 19.0083 17.4435 19.1742C17.2472 19.2036 16.9856 19.2031 16.538 19.1468C16.0862 19.0899 15.5126 18.986 14.695 18.8373L13.0656 18.541C11.8695 18.3236 11 17.2818 11 16.066H10.9979C10.9993 16.0442 11 16.0222 11 16.0001C11 15.4478 10.5523 15.0001 10 15.0001C9.44771 15.0001 9 15.4478 9 16.0001C9 16.0222 9.00072 16.0442 9.00214 16.066H9C9 18.2484 10.5607 20.1184 12.7078 20.5088L14.366 20.8103C15.1484 20.9525 15.7757 21.0666 16.2882 21.1311C16.8111 21.1969 17.2804 21.2208 17.7392 21.1523C19.5892 20.8757 21.13 19.5897 21.733 17.8191C21.8826 17.38 21.943 16.9139 21.9718 16.3877C22 15.872 22 15.2343 22 14.4391V9.56125C22 8.76599 22 8.12815 21.9718 7.61243C21.943 7.08622 21.8826 6.62012 21.733 6.18099C21.13 4.41038 19.5892 3.12441 17.7392 2.84786C17.2804 2.77927 16.8111 2.80318 16.2882 2.86901C15.7757 2.93353 15.1483 3.04761 14.3658 3.18989L12.9025 3.45593C10.723 3.8522 9.11765 5.697 9.00619 7.88817C9.0021 7.9249 9 7.96224 9 8.00006C9 8.01399 9.00029 8.02784 9.00085 8.04163C9.00028 8.07169 9 8.10181 9 8.13199H9.00863C9.0732 8.62192 9.49244 9.00006 10 9.00006C10.5076 9.00006 10.9268 8.62192 10.9914 8.13199H11C11 6.80164 11.9514 5.66165 13.2603 5.42367L14.695 5.16282Z" fill="#152C70"/>
<path d="M6.70711 9.70717C7.09763 9.31664 7.09763 8.68348 6.70711 8.29295C6.31658 7.90243 5.68342 7.90243 5.29289 8.29295L2.29289 11.293C1.90237 11.6835 1.90237 12.3166 2.29289 12.7072L5.29289 15.7072C5.68342 16.0977 6.31658 16.0977 6.70711 15.7072C7.09763 15.3166 7.09763 14.6835 6.70711 14.293L5.41421 13.0001H12C12.5523 13.0001 13 12.5523 13 12.0001C13 11.4478 12.5523 11.0001 12 11.0001H5.41421L6.70711 9.70717Z" fill="#152C70"/>
</svg>
