<svg width="24" height="24" viewBox="0 0 24 24" fill="none" xmlns="http://www.w3.org/2000/svg">
<path d="M21.2869 6.88195C21.2859 6.87995 21.2869 6.87797 21.2859 6.87597C21.2839 6.87097 21.2789 6.86797 21.2769 6.86297C20.8899 6.15997 20.2869 5.57996 19.5249 5.24096L13.5249 2.57396C12.5559 2.14396 11.4469 2.14396 10.4779 2.57396L4.47791 5.24096C3.71491 5.57996 3.11283 6.15997 2.72583 6.86297C2.72383 6.86797 2.71892 6.87097 2.71692 6.87597C2.71592 6.87797 2.71682 6.87995 2.71582 6.88195C2.42282 7.42095 2.25293 8.02895 2.25293 8.66695V15.334C2.25293 16.814 3.12686 18.1589 4.47986 18.7609L10.4799 21.428C10.9619 21.642 11.4788 21.748 11.9958 21.75C11.9988 21.75 12.0009 21.751 12.0039 21.751C12.0069 21.751 12.0088 21.75 12.0118 21.75C12.5288 21.749 13.0458 21.642 13.5278 21.428L19.5278 18.7609C20.8808 18.1599 21.7549 16.815 21.7549 15.334V8.66695C21.7499 8.02895 21.5799 7.41995 21.2869 6.88195ZM11.0859 3.94396C11.3759 3.81496 11.6889 3.74996 11.9999 3.74996C12.3109 3.74996 12.6238 3.81395 12.9138 3.94295L18.9138 6.60995C19.0838 6.68595 19.2329 6.79097 19.3759 6.90197L16.6428 8.11696L9.38391 4.69997L11.0859 3.94396ZM7.57288 5.50496L14.8319 8.92196L12.9199 9.77196C12.3339 10.027 11.6628 10.0269 11.0848 9.77395L4.6239 6.90197C4.7669 6.79097 4.91594 6.68495 5.08594 6.60995L7.57288 5.50496ZM5.08594 17.389C4.27394 17.028 3.74988 16.221 3.74988 15.333V8.66595C3.74988 8.50095 3.78582 8.34297 3.81982 8.18697L10.4799 11.147C10.7289 11.255 10.9869 11.3339 11.2499 11.3859V20.108C11.1959 20.089 11.1389 20.078 11.0859 20.055L5.08594 17.389ZM20.2499 15.333C20.2499 16.221 19.7258 17.028 18.9138 17.389L12.9138 20.056C12.8608 20.08 12.8039 20.09 12.7499 20.109V11.3859C13.0139 11.3329 13.2739 11.2539 13.5239 11.1449L15.8789 10.098V11.89C15.8789 12.304 16.2149 12.64 16.6289 12.64C17.0429 12.64 17.3789 12.304 17.3789 11.89V9.43197L20.1788 8.18795C20.2138 8.34495 20.2489 8.50195 20.2489 8.66695V15.333H20.2499Z" fill="#25314C"/>
</svg>
