<svg width="24" height="24" viewBox="0 0 24 24" fill="none" xmlns="http://www.w3.org/2000/svg">
<path fill-rule="evenodd" clip-rule="evenodd" d="M2 12C2 6.47715 6.47715 2 12 2C17.5228 2 22 6.47715 22 12C22 17.5228 17.5228 22 12 22C6.47715 22 2 17.5228 2 12ZM9.58357 4.37142C7.66544 4.97845 6.06007 6.28891 5.07026 8H7.86483C8.25003 6.73114 8.82294 5.50706 9.58357 4.37142ZM7.41759 10H4.25203C4.08751 10.6392 4 11.3094 4 12C4 12.6906 4.08751 13.3608 4.25203 14H7.41758C7.22344 12.6743 7.22344 11.3257 7.41759 10ZM9.44278 14C9.21504 12.6772 9.21504 11.3228 9.44278 10H14.5572C14.7849 11.3228 14.7849 12.6772 14.5572 14H9.44278ZM7.86482 16H5.07026C6.06007 17.7111 7.66543 19.0215 9.58355 19.6286C8.82293 18.4929 8.25002 17.2689 7.86482 16ZM12 19.5208C11.1027 18.4496 10.4268 17.2559 9.97222 16H14.0278C13.5732 17.2559 12.8972 18.4496 12 19.5208ZM9.97223 8C10.4268 6.74415 11.1027 5.5504 12 4.47919C12.8972 5.5504 13.5732 6.74416 14.0277 8H9.97223ZM19.748 10H16.5824C16.7765 11.3257 16.7765 12.6743 16.5824 14H19.748C19.9125 13.3608 20 12.6906 20 12C20 11.3094 19.9125 10.6392 19.748 10ZM16.1352 16C15.75 17.2689 15.177 18.4929 14.4164 19.6286C16.3346 19.0216 17.9399 17.7111 18.9297 16H16.1352ZM14.4164 4.37141C15.177 5.50706 15.7499 6.73114 16.1351 8H18.9297C17.9399 6.2889 16.3345 4.97843 14.4164 4.37141Z" fill="#152C70"/>
</svg>
