<svg width="24" height="24" viewBox="0 0 24 24" fill="none" xmlns="http://www.w3.org/2000/svg">
<path d="M9 12C8.44772 12 8 12.4477 8 13C8 13.5523 8.44772 14 9 14H15C15.5523 14 16 13.5523 16 13C16 12.4477 15.5523 12 15 12H9Z" fill="#152C70"/>
<path d="M8 17C8 16.4477 8.44772 16 9 16H15C15.5523 16 16 16.4477 16 17C16 17.5523 15.5523 18 15 18H9C8.44772 18 8 17.5523 8 17Z" fill="#152C70"/>
<path fill-rule="evenodd" clip-rule="evenodd" d="M12 2C13.3062 2 14.4175 2.83481 14.8293 4H15C17.7614 4 20 6.23858 20 9V17C20 19.7614 17.7614 22 15 22H9C6.23858 22 4 19.7614 4 17V9C4 6.23858 6.23858 4 9 4H9.17071C9.58254 2.83481 10.6938 2 12 2ZM8.00698 6.16825C8.09242 7.19408 8.9521 8 10 8H14C15.0479 8 15.9076 7.19408 15.993 6.16825C17.1619 6.57811 18 7.69117 18 9V17C18 18.6569 16.6569 20 15 20H9C7.34315 20 6 18.6569 6 17V9C6 7.69118 6.83814 6.57811 8.00698 6.16825ZM12 6C12.5523 6 13 5.55228 13 5C13 4.44772 12.5523 4 12 4C11.4477 4 11 4.44772 11 5C11 5.55228 11.4477 6 12 6Z" fill="#152C70"/>
</svg>
