<svg width="24" height="24" viewBox="0 0 24 24" fill="none" xmlns="http://www.w3.org/2000/svg">
<path fill-rule="evenodd" clip-rule="evenodd" d="M11.9422 4.26546C11.6921 4.70218 11.4139 5.39021 10.9912 6.44585L10.9357 6.58444C10.7186 7.12646 10.5285 7.6014 10.3294 7.98071C10.1144 8.39037 9.85257 8.76322 9.45387 9.06012C9.05507 9.35709 8.62289 9.50099 8.16887 9.58929C7.7487 9.67101 7.23965 9.71664 6.65902 9.76869L6.38839 9.79297C5.33955 9.88705 4.6657 9.95004 4.21786 10.0559C4.18112 10.0646 4.14826 10.073 4.11893 10.0811C4.13763 10.1056 4.159 10.1326 4.1834 10.1622C4.4765 10.5178 4.97555 10.976 5.7544 11.6857L6.28623 12.1703C6.64344 12.4958 6.95713 12.7816 7.19985 13.0446C7.4615 13.3281 7.68814 13.6338 7.83841 14.0189C7.88745 14.1445 7.92821 14.2733 7.96044 14.4042C8.05919 14.8055 8.0499 15.186 7.99925 15.5686C7.95225 15.9235 7.8604 16.3381 7.75576 16.8103L7.67783 17.1622C7.46711 18.1134 7.32839 18.746 7.27793 19.1939C7.27064 19.2586 7.26602 19.3138 7.26323 19.3604C7.30312 19.3372 7.34957 19.3087 7.40311 19.2737C7.77991 19.0277 8.28195 18.6197 9.03618 18.0042L9.07028 17.9763C9.52382 17.6062 9.91701 17.2852 10.2672 17.0506C10.6411 16.8002 11.0382 16.5969 11.5127 16.521C11.8353 16.4694 12.164 16.4694 12.4866 16.521C12.9611 16.5969 13.3583 16.8002 13.7321 17.0506C14.0823 17.2852 14.4755 17.6062 14.9291 17.9764L14.9631 18.0042C15.7174 18.6197 16.2194 19.0277 16.5962 19.2737C16.6498 19.3087 16.6962 19.3372 16.7361 19.3604C16.7333 19.3138 16.7287 19.2586 16.7214 19.1939C16.6709 18.746 16.5322 18.1134 16.3215 17.1622L16.2436 16.8103C16.1389 16.3381 16.0471 15.9235 16.0001 15.5686C15.9494 15.186 15.9401 14.8055 16.0389 14.4042C16.0711 14.2733 16.1119 14.1445 16.1609 14.0189C16.3112 13.6338 16.5378 13.3281 16.7995 13.0446C17.0422 12.7816 17.3559 12.4958 17.7131 12.1703L18.2449 11.6857C19.0238 10.976 19.5228 10.5178 19.8159 10.1622C19.8403 10.1326 19.8617 10.1056 19.8804 10.0811C19.8511 10.073 19.8182 10.0646 19.7815 10.0559C19.3336 9.95004 18.6598 9.88705 17.6109 9.79297L17.3403 9.76869C16.7597 9.71664 16.2506 9.67101 15.8305 9.58929C15.3764 9.50099 14.9443 9.35709 14.5455 9.06012C14.1468 8.76322 13.8849 8.39037 13.6699 7.98071C13.4709 7.60141 13.2807 7.12648 13.0637 6.58447L13.0082 6.44586C12.5854 5.39021 12.3072 4.70218 12.0571 4.26546C12.0366 4.22952 12.0174 4.19749 11.9997 4.16898C11.9819 4.19749 11.9628 4.22952 11.9422 4.26546ZM20.1026 10.1651C20.1026 10.1651 20.0985 10.1631 20.0926 10.1583C20.1 10.1626 20.1026 10.1651 20.1026 10.1651ZM20.0026 9.89123C20.0043 9.88396 20.0064 9.8799 20.0064 9.8799C20.0064 9.8799 20.0059 9.88339 20.0026 9.89123ZM3.99297 9.8799C3.99297 9.8799 3.99501 9.88397 3.99676 9.89125C3.99346 9.88341 3.99297 9.8799 3.99297 9.8799ZM3.90671 10.1583C3.90087 10.1631 3.89675 10.1651 3.89675 10.1651C3.89675 10.1651 3.89928 10.1626 3.90671 10.1583ZM10.2066 3.27158C10.5201 2.7242 11.0557 2 11.9997 2C12.9436 2 13.4792 2.7242 13.7927 3.27158C14.1211 3.84509 14.4502 4.66693 14.8355 5.6292L14.903 5.79773C15.1424 6.39555 15.2952 6.7738 15.4409 7.05132C15.5758 7.30853 15.6662 7.40106 15.74 7.45603C15.8137 7.51091 15.9279 7.57077 16.2123 7.62607C16.5193 7.68579 16.9247 7.72338 17.5654 7.78085L17.8675 7.80795C18.816 7.89296 19.6364 7.9665 20.2415 8.10952C20.8363 8.25011 21.625 8.54733 21.9109 9.3987C22.1966 10.2494 21.748 10.9626 21.3592 11.4343C20.9635 11.9144 20.3543 12.4695 19.6497 13.1114L19.0888 13.6225C18.6946 13.9817 18.4461 14.2093 18.2692 14.401C18.1048 14.5792 18.0517 14.6752 18.0241 14.746C18.0067 14.7904 17.9923 14.8358 17.981 14.8821C17.9628 14.956 17.9509 15.0653 17.9828 15.3061C18.0171 15.565 18.0892 15.8945 18.2046 16.4155L18.2871 16.788C18.4815 17.6654 18.645 18.4033 18.7088 18.97C18.7665 19.4815 18.8013 20.2357 18.2999 20.7949C18.0376 21.0874 17.6965 21.2982 17.3174 21.4018C16.5918 21.6001 15.9331 21.2294 15.5027 20.9483C15.0256 20.6367 14.4405 20.1592 13.7451 19.5916L13.6986 19.5536C13.2012 19.1477 12.8813 18.888 12.6191 18.7123C12.3717 18.5466 12.2504 18.5087 12.1708 18.4959C12.0574 18.4778 11.9419 18.4778 11.8286 18.4959C11.7489 18.5087 11.6276 18.5466 11.3802 18.7123C11.118 18.888 10.7981 19.1477 10.3008 19.5536L10.2542 19.5916C9.55884 20.1592 8.97375 20.6367 8.49666 20.9483C8.06619 21.2294 7.40749 21.6001 6.68194 21.4018C6.3028 21.2982 5.96172 21.0874 5.69943 20.7949C5.19803 20.2357 5.23287 19.4815 5.2905 18.97C5.35436 18.4033 5.51784 17.6654 5.71222 16.788L5.79474 16.4155C5.91016 15.8945 5.98227 15.565 6.01655 15.3061C6.04843 15.0653 6.03655 14.956 6.01838 14.8821C6.00699 14.8358 5.99258 14.7904 5.97526 14.746C5.94766 14.6752 5.89455 14.5792 5.7301 14.401C5.55318 14.2093 5.30471 13.9817 4.91053 13.6225L4.34962 13.1114C3.64509 12.4695 3.03585 11.9144 2.64013 11.4343C2.25131 10.9626 1.80277 10.2494 2.08843 9.3987C2.37432 8.54733 3.16304 8.25011 3.75781 8.10952C4.36291 7.9665 5.18337 7.89296 6.13185 7.80795C6.15771 7.80563 6.18366 7.8033 6.2097 7.80097L6.43397 7.78085C7.07458 7.72338 7.48 7.68579 7.78706 7.62607C8.07144 7.57077 8.18564 7.51091 8.25935 7.45603C8.33315 7.40106 8.42348 7.30853 8.55846 7.05132C8.70411 6.77379 8.8569 6.39555 9.09632 5.79773L9.13454 5.7023C9.14433 5.67784 9.15409 5.65348 9.16381 5.6292C9.54912 4.66693 9.87821 3.84508 10.2066 3.27158Z" fill="#152C70"/>
</svg>
