<svg width="18" height="18" viewBox="0 0 18 18" fill="none" xmlns="http://www.w3.org/2000/svg">
<path d="M9 1.5C4.85775 1.5 1.5 4.85775 1.5 9C1.5 13.1423 4.85775 16.5 9 16.5C13.1423 16.5 16.5 13.1423 16.5 9C16.5 4.85775 13.1423 1.5 9 1.5ZM9.01501 13.125C8.60101 13.125 8.26117 12.789 8.26117 12.375C8.26117 11.961 8.59351 11.625 9.00751 11.625H9.01501C9.42976 11.625 9.76501 11.961 9.76501 12.375C9.76501 12.789 9.42901 13.125 9.01501 13.125ZM10.2023 9.39606C9.65402 9.76356 9.55195 9.96828 9.5332 10.0223C9.45445 10.257 9.2355 10.4055 9 10.4055C8.94075 10.4055 8.88072 10.3965 8.82147 10.3762C8.52672 10.2772 8.36855 9.95851 8.4668 9.66376C8.60255 9.25876 8.95432 8.877 9.57532 8.46075C10.3411 7.94775 10.2428 7.38531 10.2105 7.20081C10.1258 6.71031 9.71248 6.29241 9.22723 6.20691C8.85823 6.13941 8.49758 6.23616 8.21558 6.47241C7.93208 6.71016 7.76917 7.06043 7.76917 7.43243C7.76917 7.74293 7.51717 7.99493 7.20667 7.99493C6.89616 7.99493 6.64417 7.74293 6.64417 7.43243C6.64417 6.72668 6.95324 6.06297 7.49249 5.61072C8.02649 5.16372 8.72922 4.97704 9.42297 5.10004C10.3732 5.26804 11.1525 6.05323 11.3183 7.00873C11.4833 7.95523 11.0865 8.80356 10.2023 9.39606Z" fill="url(#paint0_linear_1_11767)"/>
<defs>
<linearGradient id="paint0_linear_1_11767" x1="9" y1="1.5" x2="9" y2="16.5" gradientUnits="userSpaceOnUse">
<stop stop-color="#FF5A13"/>
<stop offset="1" stop-color="#C91800"/>
</linearGradient>
</defs>
</svg>
