<svg width="48" height="48" viewBox="0 0 48 48" fill="none" xmlns="http://www.w3.org/2000/svg">
<rect width="48" height="48" rx="12" fill="#F6F7F9"/>
<path d="M24 16.5C25.9466 18.2221 28.4871 19.1188 31.0834 19C31.4614 20.2858 31.577 21.6346 31.4235 22.966C31.2699 24.2974 30.8503 25.5844 30.1895 26.7504C29.5288 27.9165 28.6404 28.9378 27.5771 29.7537C26.5138 30.5696 25.2973 31.1635 24 31.5C22.7027 31.1635 21.4863 30.5696 20.423 29.7537C19.3597 28.9378 18.4713 27.9165 17.8105 26.7504C17.1498 25.5844 16.7301 24.2974 16.5766 22.966C16.423 21.6346 16.5387 20.2858 16.9167 19C19.513 19.1188 22.0535 18.2221 24 16.5" stroke="#006CE5" stroke-width="1.5" stroke-linecap="round" stroke-linejoin="round"/>
<path d="M23.9998 24C24.4601 24 24.8332 23.6269 24.8332 23.1667C24.8332 22.7065 24.4601 22.3334 23.9998 22.3334C23.5396 22.3334 23.1665 22.7065 23.1665 23.1667C23.1665 23.6269 23.5396 24 23.9998 24Z" stroke="#006CE5" stroke-width="1.5" stroke-linecap="round" stroke-linejoin="round"/>
<path d="M24 24V26.0833" stroke="#006CE5" stroke-width="1.5" stroke-linecap="round" stroke-linejoin="round"/>
</svg>
