<svg width="92" height="64" viewBox="0 0 92 64" fill="none" xmlns="http://www.w3.org/2000/svg">
<path d="M75.1432 63.7232C73.416 63.7282 71.7368 63.1552 70.3731 62.0952C69.036 61.0567 68.0621 59.6214 67.5911 57.9952H42.2541C41.7829 59.6216 40.8087 61.0569 39.4711 62.0952C38.1051 63.1512 36.4273 63.7241 34.7006 63.7241C32.974 63.7241 31.2962 63.1512 29.9301 62.0952C28.5926 61.0569 27.6184 59.6216 27.1471 57.9952H23.9401C23.469 59.6214 22.4951 61.0566 21.1581 62.0952C19.7923 63.1507 18.1148 63.7234 16.3886 63.7234C14.6625 63.7234 12.985 63.1507 11.6191 62.0952C10.2807 61.0573 9.30573 59.6219 8.83415 57.9952H2.25815C1.68005 57.9947 1.12576 57.7649 0.716886 57.3562C0.308013 56.9475 0.0779427 56.3933 0.0771484 55.8152L0.0771484 7.60922C0.0800612 5.84256 0.783633 4.14919 2.03351 2.90063C3.28338 1.65207 4.97749 0.950276 6.74415 0.949219L57.5851 0.949219C59.3515 0.950541 61.0451 1.65252 62.2944 2.90111C63.5438 4.1497 64.2468 5.84292 64.2491 7.60922V14.6092H79.4622C80.9536 14.6039 82.4311 14.8951 83.809 15.4659C85.1868 16.0367 86.4375 16.8757 87.4882 17.9342L88.3932 18.8432C89.4525 19.8937 90.2924 21.1444 90.8641 22.5224C91.4357 23.9004 91.7278 25.3783 91.7232 26.8702V55.8152C91.7226 56.3935 91.4927 56.9479 91.0838 57.3568C90.6749 57.7657 90.1204 57.9957 89.5421 57.9962H82.7011C82.23 59.6226 81.2557 61.0579 79.9182 62.0962C78.5527 63.1563 76.8718 63.729 75.1432 63.7232ZM75.1432 52.2982C74.2218 52.3055 73.3394 52.6712 72.6829 53.3177C72.0264 53.9643 71.6474 54.841 71.6262 55.7622C71.6252 55.7709 71.6252 55.7796 71.6262 55.7882C71.6272 55.7972 71.6272 55.8063 71.6262 55.8152C71.6258 55.8278 71.6238 55.8402 71.6201 55.8522C71.6171 55.8623 71.6154 55.8727 71.6152 55.8832C71.6264 56.579 71.8431 57.2559 72.238 57.8289C72.6329 58.4018 73.1883 58.8453 73.8345 59.1034C74.4808 59.3615 75.1889 59.4229 75.8698 59.2797C76.5508 59.1365 77.1743 58.7952 77.6618 58.2987C78.1493 57.8021 78.4792 57.1726 78.6099 56.4891C78.7406 55.8056 78.6663 55.0987 78.3964 54.4574C78.1265 53.816 77.673 53.2687 77.0929 52.8844C76.5128 52.5 75.832 52.2957 75.1361 52.2972L75.1432 52.2982ZM34.7001 52.2982C33.7711 52.3029 32.8811 52.6724 32.2219 53.3271C31.5627 53.9818 31.1872 54.8692 31.1761 55.7982C31.1758 55.8009 31.1758 55.8036 31.1761 55.8062C31.1765 55.8089 31.1765 55.8116 31.1761 55.8142C31.1772 55.8215 31.1772 55.8289 31.1761 55.8362C31.1754 55.8419 31.1754 55.8476 31.1761 55.8532C31.1813 56.5503 31.3927 57.2303 31.7838 57.8075C32.1749 58.3846 32.7281 58.833 33.3737 59.0961C34.0192 59.3592 34.7283 59.4253 35.4114 59.286C36.0944 59.1468 36.721 58.8083 37.212 58.3134C37.703 57.8185 38.0365 57.1893 38.1703 56.5052C38.3042 55.821 38.2325 55.1125 37.9643 54.469C37.6961 53.8256 37.2433 53.2759 36.6631 52.8894C36.0829 52.5029 35.4013 52.2968 34.7041 52.2972L34.7001 52.2982ZM16.3901 52.2982C15.4663 52.3048 14.5814 52.6716 13.9239 53.3206C13.2663 53.9696 12.8879 54.8495 12.8691 55.7732C12.8682 55.7802 12.8682 55.7873 12.8691 55.7942C12.8701 55.8012 12.8701 55.8083 12.8691 55.8152C12.8688 55.8268 12.8668 55.8382 12.8631 55.8492C12.8602 55.8579 12.8586 55.867 12.8581 55.8762C12.8682 56.5716 13.0836 57.2485 13.4773 57.8218C13.871 58.3951 14.4254 58.8393 15.0709 59.0983C15.7163 59.3574 16.4239 59.4199 17.1047 59.278C17.7855 59.136 18.4092 58.7959 18.8973 58.3005C19.3854 57.8051 19.7161 57.1764 19.8479 56.4935C19.9797 55.8107 19.9066 55.1041 19.6379 54.4626C19.3692 53.8211 18.9169 53.2734 18.3378 52.8883C17.7587 52.5032 17.0786 52.2979 16.3831 52.2982H16.3901ZM75.1432 47.9372C76.8655 47.9322 78.5402 48.502 79.9021 49.5562C81.2365 50.5888 82.2114 52.0158 82.6881 53.6342H87.3622V26.8662C87.3649 25.9477 87.1851 25.0379 86.8332 24.1895C86.4812 23.3411 85.9642 22.5711 85.3121 21.9242L84.4031 21.0152C83.7567 20.3626 82.987 19.8449 82.1388 19.4923C81.2906 19.1397 80.3807 18.9592 79.4622 18.9612H64.2491V53.6342H67.6021C68.0791 52.0158 69.0539 50.5889 70.3881 49.5562C71.7488 48.5023 73.4221 47.9326 75.1432 47.9372ZM34.7001 47.9372C36.4219 47.9321 38.096 48.5019 39.4571 49.5562C40.791 50.589 41.7655 52.0159 42.2421 53.6342H59.8881V42.8852H4.43815V53.6342H8.84515C9.32198 52.0158 10.2968 50.5888 11.6311 49.5562C12.9949 48.5068 14.6674 47.9377 16.3881 47.9377C18.1089 47.9377 19.7814 48.5068 21.1451 49.5562C22.4798 50.5887 23.455 52.0157 23.9321 53.6342H27.1551C27.634 52.016 28.6097 50.5893 29.9441 49.5562C31.3051 48.5023 32.9788 47.9325 34.7001 47.9372ZM6.74415 5.30622C6.13359 5.30648 5.548 5.54866 5.11561 5.97974C4.68323 6.41081 4.43926 6.99566 4.43715 7.60622V38.5202H59.8881V7.60922C59.8866 6.99971 59.6437 6.41561 59.2127 5.98462C58.7818 5.55363 58.1977 5.3108 57.5882 5.30922L6.74415 5.30622ZM80.8601 36.2982H71.2181C70.6406 36.2969 70.0871 36.0665 69.6792 35.6577C69.2712 35.2488 69.0421 34.6948 69.0421 34.1172V24.7592C69.0421 24.1816 69.2712 23.6277 69.6792 23.2188C70.0871 22.8099 70.6406 22.5795 71.2181 22.5782H75.2512C77.0442 22.581 78.7636 23.2919 80.0351 24.5562L81.0582 25.5832C82.3232 26.8533 83.0355 28.5716 83.0401 30.3642V34.1182C83.0394 34.6961 82.8094 35.2502 82.4008 35.6588C81.9921 36.0675 81.4381 36.2974 80.8601 36.2982ZM73.4021 26.9342V31.9342H78.6771V30.3642C78.6731 29.727 78.4197 29.1168 77.9711 28.6642L76.9482 27.6412C76.4965 27.1912 75.8857 26.9375 75.2481 26.9352L73.4021 26.9342ZM48.8021 30.0192C48.2241 30.0187 47.67 29.7888 47.2612 29.3801C46.8525 28.9714 46.6227 28.4172 46.6221 27.8392V15.2082C46.6221 14.63 46.8518 14.0756 47.2607 13.6667C47.6695 13.2579 48.224 13.0282 48.8021 13.0282C49.3803 13.0282 49.9348 13.2579 50.3436 13.6667C50.7525 14.0756 50.9821 14.63 50.9821 15.2082V27.8402C50.9814 28.4181 50.7514 28.9722 50.3428 29.3808C49.9341 29.7895 49.3801 30.0194 48.8021 30.0202V30.0192ZM37.2021 30.0192C36.624 30.0187 36.0698 29.7889 35.6609 29.3802C35.252 28.9715 35.0219 28.4173 35.0211 27.8392V15.2082C35.0211 14.6299 35.2509 14.0753 35.6598 13.6664C36.0687 13.2574 36.6233 13.0277 37.2016 13.0277C37.78 13.0277 38.3346 13.2574 38.7435 13.6664C39.1524 14.0753 39.3821 14.6299 39.3821 15.2082V27.8402C39.3816 28.4175 39.1523 28.9711 38.7445 29.3797C38.3366 29.7883 37.7835 30.0186 37.2062 30.0202L37.2021 30.0192ZM25.6021 30.0192C25.024 30.0187 24.4698 29.7889 24.0609 29.3802C23.652 28.9715 23.4219 28.4173 23.4211 27.8392V15.2082C23.4149 14.9179 23.4667 14.6293 23.5735 14.3594C23.6803 14.0894 23.8399 13.8434 24.043 13.6359C24.2461 13.4284 24.4886 13.2636 24.7562 13.151C25.0239 13.0385 25.3113 12.9805 25.6016 12.9805C25.892 12.9805 26.1794 13.0385 26.4471 13.151C26.7147 13.2636 26.9572 13.4284 27.1603 13.6359C27.3634 13.8434 27.523 14.0894 27.6298 14.3594C27.7366 14.6293 27.7884 14.9179 27.7821 15.2082V27.8402C27.7814 28.4176 27.5518 28.9712 27.1438 29.3798C26.7358 29.7883 26.1826 30.0186 25.6051 30.0202L25.6021 30.0192ZM14.0081 30.0192C13.4301 30.0187 12.876 29.7888 12.4672 29.3801C12.0585 28.9714 11.8287 28.4172 11.8281 27.8392V15.2082C11.8281 14.6299 12.0579 14.0753 12.4668 13.6664C12.8757 13.2574 13.4303 13.0277 14.0086 13.0277C14.587 13.0277 15.1416 13.2574 15.5505 13.6664C15.9594 14.0753 16.1891 14.6299 16.1891 15.2082V27.8402C16.1884 28.4178 15.9587 28.9715 15.5505 29.3801C15.1422 29.7887 14.5887 30.0189 14.0111 30.0202L14.0081 30.0192Z" fill="#626262"/>
</svg>
