<svg width="64" height="64" viewBox="0 0 64 64" fill="none" xmlns="http://www.w3.org/2000/svg">
<circle cx="32.5" cy="32.5" r="26.5" fill="#E8EBEE"/>
<path fill-rule="evenodd" clip-rule="evenodd" d="M35.8551 58.7896C31.6457 55.5058 26.2495 51.3848 25 50.7601C23.4 49.9601 22.3333 48.0934 22 47.2601L39 17.7601C36.5 15.7601 41.5 18.1601 43.5 19.7601C45.6657 21.4926 45.5801 31.4798 45.5185 38.6704C45.5089 39.7805 45.5 40.824 45.5 41.7601C45.5 44.6161 47.5808 48.5472 50.1506 52.2666C46.2498 55.7523 41.3109 58.1003 35.8551 58.7896Z" fill="#FFCEBF"/>
<rect x="15" y="6" width="23" height="42" rx="3" fill="white" stroke="url(#paint0_linear_1_5175)" stroke-width="2"/>
<path d="M21 5H32V7C32 8.10457 31.1046 9 30 9H23C21.8954 9 21 8.10457 21 7V5Z" fill="url(#paint1_linear_1_5175)"/>
<circle cx="26.5" cy="23.5" r="5.5" fill="#FFCEBF"/>
<path d="M18 34C18 31.2386 20.2386 29 23 29H30C32.7614 29 35 31.2386 35 34V47H18V34Z" fill="url(#paint2_linear_1_5175)"/>
<path d="M21 23.5C21 20.4624 23.4624 18 26.5 18C29.5376 18 32 20.4624 32 23.5V24H21V23.5Z" fill="url(#paint3_linear_1_5175)"/>
<rect x="17" y="23" width="19" height="2" rx="1" fill="#102693"/>
<path d="M31.5 52C29.1 52.8 28.5 53 24.5 50.5L23 49L38 48L40.5 49.5C37.8333 50 33.9 51.2 31.5 52Z" fill="#FFB09E"/>
<path d="M24.4576 42.1207C25.6576 44.9207 33.9576 50.2874 37.9576 52.6207L40.9574 48.1207C36.9575 44.7874 28.6217 38.4118 27.4576 38.1207C25.4575 37.6207 22.9576 38.6207 24.4576 42.1207Z" fill="#FFCEBF"/>
<path d="M36.2758 4.26571C35.9389 4.27367 35.6444 4.03755 35.5781 3.70593L35.013 0.848672C34.9387 0.46399 35.1907 0.08992 35.5754 0.0129837C35.9601 -0.0612997 36.3342 0.190733 36.4111 0.575415L36.9762 3.43267C37.0531 3.81205 36.8091 4.18081 36.4297 4.2551C36.427 4.2551 36.427 4.2551 36.4244 4.2551L36.2758 4.26571Z" fill="#FFB200"/>
<path d="M39.6506 4.53107C39.2659 4.51515 38.9661 4.18884 38.9821 3.80416C38.9874 3.69273 39.0165 3.58661 39.0723 3.4911L40.7489 0.527727C40.9426 0.190799 41.3697 0.0767215 41.7067 0.270389C42.0436 0.464056 42.1577 0.891186 41.964 1.22811L40.2873 4.19149C40.1547 4.41169 39.9079 4.54434 39.6506 4.53107Z" fill="#FFB200"/>
<path d="M41.3538 7.09644C40.9691 7.09379 40.6561 6.78074 40.6587 6.39341C40.6614 6.12811 40.8126 5.88403 41.054 5.7673L43.967 4.36918C44.3172 4.20205 44.7337 4.35061 44.9008 4.70081C45.068 5.051 44.9194 5.46752 44.5692 5.63465L41.6562 7.03277C41.5607 7.07522 41.4599 7.09644 41.3538 7.09644Z" fill="#FFB200"/>
<defs>
<linearGradient id="paint0_linear_1_5175" x1="26.5" y1="5" x2="26.5" y2="49" gradientUnits="userSpaceOnUse">
<stop stop-color="#1347FF"/>
<stop offset="1" stop-color="#0032E7"/>
</linearGradient>
<linearGradient id="paint1_linear_1_5175" x1="26.5" y1="5" x2="26.5" y2="9" gradientUnits="userSpaceOnUse">
<stop stop-color="#1347FF"/>
<stop offset="1" stop-color="#0032E7"/>
</linearGradient>
<linearGradient id="paint2_linear_1_5175" x1="26.5" y1="29" x2="26.5" y2="47" gradientUnits="userSpaceOnUse">
<stop stop-color="#1347FF"/>
<stop offset="1" stop-color="#0032E7"/>
</linearGradient>
<linearGradient id="paint3_linear_1_5175" x1="26.5" y1="18" x2="26.5" y2="24" gradientUnits="userSpaceOnUse">
<stop stop-color="#1347FF"/>
<stop offset="1" stop-color="#0032E7"/>
</linearGradient>
</defs>
</svg>
