<svg width="64" height="64" viewBox="0 0 64 64" fill="none" xmlns="http://www.w3.org/2000/svg">
<circle cx="28.7061" cy="31.5294" r="25.8824" fill="#E8EBEE"/>
<path fill-rule="evenodd" clip-rule="evenodd" d="M11.106 50.5069V26.6647C11.106 24.9774 12.4045 23.5743 14.0867 23.4439L42.3526 21.2528C44.2295 21.1073 45.8327 22.591 45.8327 24.4735V50.9353C43.2553 53.2117 40.2211 54.9826 36.8851 56.0929L16.8431 54.5392C14.7477 53.4567 12.819 52.0964 11.106 50.5069Z" fill="#254EDB"/>
<path d="M20.5278 28.2514C20.5278 27.6567 21.0099 27.1746 21.6046 27.1746H54.9853C55.58 27.1746 56.0621 27.6567 56.0621 28.2514V43.3265C56.0621 43.9212 55.58 44.4033 54.9853 44.4033H21.6046C21.0099 44.4033 20.5278 43.9212 20.5278 43.3265V28.2514Z" fill="url(#paint0_linear_1_5202)"/>
<path d="M20.5278 32.0202C20.5278 31.4255 21.0099 30.9434 21.6046 30.9434H57.4081C58.0028 30.9434 58.4849 31.4255 58.4849 32.0202V47.0953C58.4849 47.69 58.0028 48.1721 57.4081 48.1721H21.6046C21.0099 48.1721 20.5278 47.69 20.5278 47.0953V32.0202Z" fill="#D6E4FF"/>
<path d="M20.5278 34.7121C20.5278 34.1174 21.0099 33.6353 21.6046 33.6353H59.5617C60.1564 33.6353 60.6385 34.1174 60.6385 34.7121V51.9408C60.6385 52.5355 60.1564 53.0176 59.5617 53.0176H21.6046C21.0099 53.0176 20.5278 52.5355 20.5278 51.9408V34.7121Z" fill="url(#paint1_linear_1_5202)"/>
<path d="M39.6411 44.4033H51.7551V45.4801H39.6411V44.4033Z" fill="#D6E4FF"/>
<path d="M39.6411 47.6337H54.1779V48.7105H39.6411V47.6337Z" fill="#D6E4FF"/>
<path d="M11.106 50.5069V23.0988C11.106 21.4392 12.3635 20.0496 14.0149 19.8844L37.166 17.5693C39.0677 17.3792 40.7179 18.8725 40.7179 20.7837V54.4616C37.1281 56.3458 33.0415 57.4118 28.706 57.4118C21.9091 57.4118 15.7242 54.7919 11.106 50.5069Z" fill="url(#paint2_linear_1_5202)"/>
<path d="M25.7771 39.1764C21.7504 39.1764 18.4863 35.9123 18.4863 31.8855C18.4863 27.8588 21.7504 24.5947 25.7771 24.5947C29.8039 24.5947 33.068 27.8588 33.068 31.8855C33.068 35.9123 29.8039 39.1764 25.7771 39.1764ZM24.1075 37.4754C23.3882 35.9497 22.9715 34.299 22.8805 32.6146H19.9897C20.1316 33.7366 20.5962 34.7932 21.3272 35.6561C22.0583 36.519 23.0241 37.1511 24.1075 37.4754ZM24.3409 32.6146C24.4509 34.3929 24.9591 36.0632 25.7771 37.5374C26.6173 36.0242 27.108 34.3422 27.2134 32.6146H24.3409ZM31.5646 32.6146H28.6738C28.5827 34.299 28.166 35.9497 27.4467 37.4754C28.5301 37.1511 29.496 36.519 30.227 35.6561C30.958 34.7932 31.4227 33.7366 31.5646 32.6146ZM19.9897 31.1565H22.8805C22.9715 29.4721 23.3882 27.8214 24.1075 26.2957C23.0241 26.62 22.0583 27.252 21.3272 28.1149C20.5962 28.9778 20.1316 30.0345 19.9897 31.1565ZM24.3416 31.1565H27.2127C27.1075 29.429 26.617 27.7469 25.7771 26.2337C24.937 27.7469 24.4462 29.4289 24.3409 31.1565H24.3416ZM27.4467 26.2957C28.166 27.8214 28.5827 29.4721 28.6738 31.1565H31.5646C31.4227 30.0345 30.958 28.9778 30.227 28.1149C29.496 27.252 28.5301 26.62 27.4467 26.2957Z" fill="#D6E4FF"/>
<path d="M42.3276 40.0961H42.8402V39.1765H43.4733C43.4985 39.1765 43.5336 39.1753 43.5789 39.1727C43.6241 39.1702 43.6643 39.1665 43.6995 39.1614C43.9407 39.1237 44.1178 39.0245 44.2309 38.8637C44.3439 38.7016 44.4005 38.5069 44.4005 38.2795C44.4005 38.0509 44.3446 37.8562 44.2328 37.6954C44.121 37.5346 43.9432 37.4353 43.6995 37.3976C43.6643 37.3914 43.6241 37.3876 43.5789 37.3863C43.5349 37.3838 43.4997 37.3826 43.4733 37.3826H42.3276V40.0961ZM42.8402 38.6979V37.8612H43.4507C43.4771 37.8612 43.506 37.8625 43.5374 37.865C43.5688 37.8675 43.5977 37.8725 43.6241 37.88C43.6932 37.8989 43.7466 37.9309 43.7843 37.9762C43.822 38.0201 43.8477 38.0697 43.8615 38.125C43.8766 38.179 43.8841 38.2305 43.8841 38.2795C43.8841 38.3285 43.8766 38.3807 43.8615 38.4359C43.8477 38.49 43.822 38.5396 43.7843 38.5848C43.7466 38.6288 43.6932 38.6602 43.6241 38.679C43.5977 38.6866 43.5688 38.6916 43.5374 38.6941C43.506 38.6966 43.4771 38.6979 43.4507 38.6979H42.8402Z" fill="#D6E4FF"/>
<path d="M45.3612 40.1526C45.5182 40.1526 45.6501 40.1288 45.7569 40.081C45.8649 40.032 45.9642 39.9541 46.0546 39.8474V40.0961H46.5031V38.8524C46.5031 38.7594 46.4993 38.6753 46.4918 38.5999C46.4843 38.5245 46.4604 38.4491 46.4202 38.3738C46.3486 38.2381 46.2431 38.1426 46.1036 38.0873C45.9642 38.0321 45.8046 38.0044 45.625 38.0044C45.38 38.0044 45.1866 38.0572 45.0446 38.1627C44.9026 38.2682 44.8059 38.4052 44.7544 38.5735L45.218 38.7205C45.2506 38.6275 45.3078 38.5628 45.3894 38.5264C45.4711 38.49 45.5496 38.4717 45.625 38.4717C45.7456 38.4717 45.8354 38.4944 45.8945 38.5396C45.9535 38.5836 45.9881 38.6533 45.9981 38.7488C45.8071 38.7764 45.6388 38.8034 45.4931 38.8298C45.3474 38.8549 45.2255 38.8851 45.1275 38.9202C44.9642 38.9805 44.8492 39.0628 44.7827 39.1671C44.7161 39.2701 44.6828 39.3926 44.6828 39.5345C44.6828 39.6476 44.7085 39.7513 44.7601 39.8455C44.8128 39.9384 44.8894 40.0132 44.9899 40.0697C45.0917 40.125 45.2154 40.1526 45.3612 40.1526ZM45.4705 39.7494C45.3825 39.7494 45.3128 39.7299 45.2613 39.691C45.2098 39.6508 45.184 39.5961 45.184 39.527C45.184 39.4755 45.2004 39.4315 45.233 39.3951C45.2657 39.3574 45.3197 39.3235 45.3951 39.2933C45.4529 39.272 45.5239 39.2525 45.608 39.2349C45.6935 39.2161 45.8222 39.1922 45.9943 39.1633C45.9931 39.2123 45.9893 39.2663 45.983 39.3254C45.9767 39.3832 45.9629 39.434 45.9416 39.478C45.9278 39.5069 45.9014 39.5427 45.8624 39.5854C45.8247 39.6281 45.7732 39.6665 45.7079 39.7004C45.6438 39.733 45.5647 39.7494 45.4705 39.7494Z" fill="#D6E4FF"/>
<path d="M47.8421 40.1526C48.1085 40.1526 48.317 40.093 48.4678 39.9736C48.6185 39.8543 48.6939 39.6903 48.6939 39.4818C48.6939 39.3235 48.6449 39.1985 48.5469 39.1068C48.4502 39.0151 48.2856 38.9391 48.0532 38.8788C47.8949 38.8386 47.7768 38.8059 47.6989 38.7808C47.6223 38.7557 47.5714 38.7312 47.5463 38.7073C47.5224 38.6834 47.5105 38.6539 47.5105 38.6187C47.5105 38.5597 47.5388 38.5145 47.5953 38.4831C47.6531 38.4516 47.7291 38.4391 47.8233 38.4454C48.023 38.4604 48.1323 38.5459 48.1512 38.7016L48.675 38.6074C48.6487 38.4228 48.5582 38.2764 48.4037 38.1684C48.2492 38.0591 48.0519 38.0044 47.812 38.0044C47.5658 38.0044 47.3692 38.0622 47.2222 38.1778C47.0752 38.2934 47.0017 38.4491 47.0017 38.6451C47.0017 38.8009 47.0526 38.924 47.1543 39.0145C47.2561 39.1036 47.4313 39.1803 47.6801 39.2444C47.8271 39.2833 47.9351 39.3147 48.0042 39.3386C48.0746 39.3624 48.1198 39.3869 48.1399 39.4121C48.16 39.4359 48.17 39.468 48.17 39.5082C48.17 39.5722 48.1449 39.6225 48.0947 39.6589C48.0444 39.6941 47.9728 39.7117 47.8798 39.7117C47.7668 39.7117 47.6732 39.6847 47.5991 39.6307C47.5262 39.5766 47.4791 39.5019 47.4577 39.4064L46.9339 39.4856C46.9678 39.6979 47.0633 39.8624 47.2203 39.9793C47.3786 40.0948 47.5859 40.1526 47.8421 40.1526Z" fill="#D6E4FF"/>
<path d="M49.957 40.1526C50.2234 40.1526 50.4319 40.093 50.5827 39.9736C50.7334 39.8543 50.8088 39.6903 50.8088 39.4818C50.8088 39.3235 50.7598 39.1985 50.6618 39.1068C50.5651 39.0151 50.4005 38.9391 50.1681 38.8788C50.0098 38.8386 49.8917 38.8059 49.8138 38.7808C49.7372 38.7557 49.6863 38.7312 49.6612 38.7073C49.6373 38.6834 49.6254 38.6539 49.6254 38.6187C49.6254 38.5597 49.6537 38.5145 49.7102 38.4831C49.768 38.4516 49.844 38.4391 49.9382 38.4454C50.1379 38.4604 50.2472 38.5459 50.2661 38.7016L50.7899 38.6074C50.7636 38.4228 50.6731 38.2764 50.5186 38.1684C50.3641 38.0591 50.1668 38.0044 49.9269 38.0044C49.6807 38.0044 49.4841 38.0622 49.3371 38.1778C49.1901 38.2934 49.1166 38.4491 49.1166 38.6451C49.1166 38.8009 49.1675 38.924 49.2692 39.0145C49.371 39.1036 49.5462 39.1803 49.795 39.2444C49.942 39.2833 50.05 39.3147 50.1191 39.3386C50.1895 39.3624 50.2347 39.3869 50.2548 39.4121C50.2749 39.4359 50.2849 39.468 50.2849 39.5082C50.2849 39.5722 50.2598 39.6225 50.2096 39.6589C50.1593 39.6941 50.0877 39.7117 49.9947 39.7117C49.8817 39.7117 49.7881 39.6847 49.714 39.6307C49.6411 39.5766 49.594 39.5019 49.5726 39.4064L49.0488 39.4856C49.0827 39.6979 49.1782 39.8624 49.3352 39.9793C49.4935 40.0948 49.7008 40.1526 49.957 40.1526Z" fill="#D6E4FF"/>
<path d="M51.273 41.0006H51.7893V40.0226C51.8559 40.0641 51.9294 40.0961 52.0098 40.1187C52.0914 40.1413 52.18 40.1526 52.2755 40.1526C52.4626 40.1526 52.6266 40.1055 52.7673 40.0113C52.908 39.9171 53.0173 39.7889 53.0952 39.6269C53.1743 39.4648 53.2139 39.282 53.2139 39.0785C53.2139 38.8712 53.1737 38.6872 53.0933 38.5264C53.0141 38.3643 52.9023 38.2368 52.7579 38.1439C52.6134 38.0509 52.4438 38.0044 52.2491 38.0044C52.1435 38.0044 52.0468 38.0195 51.9589 38.0496C51.8722 38.0785 51.7943 38.12 51.7252 38.174V38.061H51.273V41.0006ZM52.1925 39.6966C52.0217 39.6966 51.9011 39.6401 51.8307 39.527C51.7604 39.4127 51.7252 39.2632 51.7252 39.0785C51.7252 38.8939 51.7598 38.745 51.8288 38.6319C51.8992 38.5176 52.0141 38.4604 52.1737 38.4604C52.288 38.4604 52.3816 38.4887 52.4545 38.5452C52.5286 38.6005 52.5832 38.6753 52.6184 38.7695C52.6536 38.8624 52.6712 38.9655 52.6712 39.0785C52.6712 39.1928 52.6542 39.2971 52.6203 39.3913C52.5864 39.4843 52.5342 39.5584 52.4639 39.6137C52.3935 39.669 52.3031 39.6966 52.1925 39.6966Z" fill="#D6E4FF"/>
<path d="M54.5982 40.1526C54.8017 40.1526 54.9807 40.1074 55.1352 40.017C55.291 39.9252 55.4123 39.799 55.4989 39.6382C55.5869 39.4761 55.6308 39.2896 55.6308 39.0785C55.6308 38.8687 55.5875 38.6834 55.5008 38.5226C55.4141 38.3606 55.2929 38.2337 55.1371 38.142C54.9826 38.0503 54.803 38.0044 54.5982 38.0044C54.3972 38.0044 54.2194 38.0496 54.0649 38.1401C53.9104 38.2305 53.7892 38.3568 53.7012 38.5189C53.6133 38.6797 53.5693 38.8662 53.5693 39.0785C53.5693 39.2883 53.612 39.4742 53.6975 39.6363C53.7841 39.7971 53.9047 39.9234 54.0593 40.0151C54.2138 40.1068 54.3934 40.1526 54.5982 40.1526ZM54.5982 39.674C54.4386 39.674 54.3174 39.6206 54.2345 39.5138C54.1528 39.4058 54.112 39.2607 54.112 39.0785C54.112 38.9014 54.151 38.7582 54.2288 38.6489C54.308 38.5383 54.4311 38.4831 54.5982 38.4831C54.7602 38.4831 54.8821 38.5371 54.9638 38.6451C55.0467 38.7532 55.0881 38.8976 55.0881 39.0785C55.0881 39.2531 55.0473 39.3964 54.9656 39.5082C54.8852 39.6187 54.7628 39.674 54.5982 39.674Z" fill="#D6E4FF"/>
<path d="M56.0991 40.0961H56.6154V39.0559C56.6154 38.8197 56.7084 38.6589 56.8943 38.5735C56.9546 38.5446 57.0218 38.5277 57.0959 38.5226C57.1713 38.5163 57.2372 38.522 57.2938 38.5396V38.061C57.2021 38.0496 57.1104 38.0522 57.0187 38.0685C56.9269 38.0836 56.844 38.1137 56.7699 38.1589C56.7222 38.1866 56.6801 38.2199 56.6437 38.2588C56.6085 38.2978 56.5777 38.3411 56.5513 38.3888V38.061H56.0991V40.0961Z" fill="#D6E4FF"/>
<path d="M58.9272 40.0961V39.6702C58.8065 39.6866 58.6966 39.6916 58.5974 39.6853C58.4981 39.679 58.4259 39.6401 58.3807 39.5685C58.3568 39.5308 58.3436 39.4805 58.3411 39.4177C58.3398 39.3536 58.3392 39.282 58.3392 39.2029V38.4567H58.9272V38.061H58.3392V37.4956H57.8267V38.061H57.4799V38.4567H57.8267V39.233C57.8267 39.3549 57.8279 39.4642 57.8304 39.5609C57.8329 39.6564 57.8593 39.7506 57.9096 39.8436C57.9649 39.9428 58.0453 40.0151 58.1508 40.0603C58.2576 40.1043 58.3782 40.1275 58.5126 40.13C58.6483 40.1338 58.7864 40.1225 58.9272 40.0961Z" fill="#D6E4FF"/>
<path d="M15.144 44.4033L36.9492 44.8819V46.5569L15.144 46.0783V44.4033Z" fill="#D6E4FF"/>
<path d="M13.7979 48.1721L38.5642 48.9797V50.6547L13.7979 49.8471V48.1721Z" fill="#D6E4FF"/>
<path d="M52.2944 24.9991C51.9574 25.0071 51.6629 24.771 51.5966 24.4393L51.0315 21.5821C50.9573 21.1974 51.2093 20.8233 51.594 20.7464C51.9787 20.6721 52.3527 20.9241 52.4297 21.3088L52.9947 24.1661C53.0717 24.5454 52.8276 24.9142 52.4482 24.9885C52.4456 24.9885 52.4456 24.9885 52.4429 24.9885L52.2944 24.9991Z" fill="#FFB200"/>
<path d="M55.6692 25.2645C55.2845 25.2486 54.9847 24.9222 55.0006 24.5376C55.0059 24.4261 55.0351 24.32 55.0908 24.2245L56.7675 21.2611C56.9612 20.9242 57.3883 20.8101 57.7252 21.0038C58.0621 21.1975 58.1762 21.6246 57.9825 21.9615L56.3059 24.9249C56.1732 25.1451 55.9265 25.2777 55.6692 25.2645Z" fill="#FFB200"/>
<path d="M57.3723 27.8298C56.9877 27.8272 56.6746 27.5141 56.6773 27.1268C56.6799 26.8615 56.8311 26.6174 57.0726 26.5007L59.9855 25.1026C60.3357 24.9354 60.7522 25.084 60.9194 25.4342C61.0865 25.7844 60.9379 26.2009 60.5877 26.3681L57.6748 27.7662C57.5793 27.8086 57.4785 27.8298 57.3723 27.8298Z" fill="#FFB200"/>
<defs>
<linearGradient id="paint0_linear_1_5202" x1="38.295" y1="27.1746" x2="38.295" y2="44.4033" gradientUnits="userSpaceOnUse">
<stop stop-color="#1347FF"/>
<stop offset="1" stop-color="#0032E7"/>
</linearGradient>
<linearGradient id="paint1_linear_1_5202" x1="40.5832" y1="33.6353" x2="40.5832" y2="53.0176" gradientUnits="userSpaceOnUse">
<stop stop-color="#1347FF"/>
<stop offset="1" stop-color="#0032E7"/>
</linearGradient>
<linearGradient id="paint2_linear_1_5202" x1="25.9119" y1="17.553" x2="25.9119" y2="57.4118" gradientUnits="userSpaceOnUse">
<stop stop-color="#1347FF"/>
<stop offset="1" stop-color="#0032E7"/>
</linearGradient>
</defs>
</svg>
