<svg width="48" height="36" viewBox="0 0 48 36" fill="none" xmlns="http://www.w3.org/2000/svg">
<path d="M33.5575 0C34.5866 0 35.5706 0.402647 36.2964 1.1172C37.0231 1.8327 37.4282 2.80435 37.4282 3.8138V23.3469C37.4282 24.3563 37.0192 25.3251 36.2964 26.0397C35.5706 26.7542 34.5837 27.1569 33.5575 27.1569H5.21637C4.19109 27.1569 3.20709 26.7542 2.47749 26.0435C1.75173 25.328 1.34277 24.3563 1.34277 23.3469V3.8138C1.34277 3.3138 1.44454 2.81758 1.63845 2.35255C1.83237 1.8913 2.11845 1.47164 2.47749 1.1172C2.83749 0.763705 3.26373 0.482043 3.73605 0.291117C4.20549 0.0973551 4.70949 0 5.21637 0H33.5575Z" fill="url(#paint0_linear_1_11721)"/>
<path d="M12.6298 10.4708C12.8102 10.4708 12.9898 10.5058 13.1587 10.5748C13.3277 10.6438 13.4794 10.7449 13.6099 10.8735C13.7366 10.9982 13.8394 11.1476 13.9094 11.3139C13.9805 11.4803 14.015 11.658 14.015 11.8385V15.329C14.015 15.5096 13.9805 15.6873 13.9094 15.8536C13.8394 16.02 13.7366 16.1693 13.6099 16.2979C13.4794 16.4226 13.3277 16.5238 13.1587 16.5927C12.9898 16.6617 12.8102 16.6967 12.6298 16.6967H0.0355195C0.0249595 16.6967 0.01728 16.6939 0.0105601 16.6863C0.00384006 16.6797 0 16.6693 0 16.6617V10.5124C0 10.502 0.00384006 10.4954 0.0105601 10.4878C0.01728 10.4812 0.0249595 10.4774 0.0355195 10.4774H12.623C12.6269 10.4774 12.6269 10.4774 12.6269 10.4746C12.6269 10.4746 12.6298 10.4746 12.6298 10.4708Z" fill="#FFD023"/>
<path d="M10.6981 15.7413C11.7628 15.7413 12.6296 14.8915 12.6296 13.8396C12.6296 12.7885 11.7628 11.9379 10.6981 11.9379C9.6306 11.9379 8.7666 12.7885 8.7666 13.8396C8.7666 14.8915 9.6306 15.7413 10.6981 15.7413Z" fill="url(#paint1_linear_1_11721)"/>
<path d="M35.2925 36C42.311 36 48 30.3988 48 23.4886C48 16.5784 42.311 10.9773 35.2925 10.9773C28.2739 10.9773 22.585 16.5784 22.585 23.4886C22.585 30.3988 28.2739 36 35.2925 36Z" fill="#FFD023"/>
<path d="M33.1944 25.5182C33.2049 25.5182 33.2117 25.522 33.2193 25.5286C33.2261 25.5352 33.2299 25.5428 33.2299 25.5494C33.3288 26.5702 33.7694 27.1146 34.7275 27.2706C34.7352 27.2706 34.7381 27.2706 34.7419 27.2706C34.7486 27.2706 34.7525 27.2677 34.7563 27.264C34.7592 27.2602 34.763 27.2573 34.7668 27.2536C34.7668 27.2469 34.7697 27.2432 34.7697 27.2365V24.3207C34.7697 24.3103 34.7669 24.3037 34.763 24.297C34.7563 24.2895 34.7525 24.2866 34.7419 24.2866C32.8142 23.7696 30.8923 23.1685 30.8923 20.7536C30.8923 18.4275 32.6059 17.6987 34.738 17.4908C34.7457 17.4908 34.7563 17.487 34.7592 17.4804C34.7669 17.4738 34.7697 17.4662 34.7697 17.4558V16.1165C34.7697 16.1099 34.7736 16.0995 34.7803 16.0919C34.788 16.0853 34.7947 16.0815 34.8053 16.0815H35.9371C35.9476 16.0815 35.9544 16.0853 35.962 16.0919C35.9688 16.0995 35.9726 16.1099 35.9726 16.1165V17.4558C35.9726 17.4662 35.9755 17.4738 35.9832 17.4804C35.9899 17.487 35.9966 17.4908 36.0072 17.4908C38.0376 17.574 39.8884 18.5664 39.7406 20.8849C39.7406 20.8953 39.7368 20.9029 39.73 20.9095C39.7224 20.9161 39.7156 20.9199 39.7051 20.9199H37.283C37.2763 20.9199 37.2657 20.9161 37.2619 20.9095C37.2552 20.9029 37.2513 20.8953 37.2485 20.8887C37.1669 20.056 36.7684 19.6014 36.0148 19.4653C36.011 19.4624 36.0043 19.4624 36.0005 19.4653C35.9937 19.4653 35.9899 19.4691 35.986 19.4728C35.9832 19.4757 35.9793 19.4795 35.9755 19.4832C35.9755 19.4899 35.9726 19.4936 35.9726 19.5003V22.1761C35.9726 22.1827 35.9755 22.1902 35.9793 22.1968C35.986 22.2035 35.9937 22.2072 36.0005 22.211C37.9848 22.7072 39.9835 23.4152 39.9835 25.8547C39.9835 27.8093 38.5493 29.0863 36.0072 29.3708C35.9966 29.3745 35.9899 29.3774 35.9832 29.3849C35.9793 29.3878 35.9755 29.3982 35.9755 29.4057V30.8594C35.9755 30.866 35.9726 30.8774 35.9649 30.884C35.9582 30.8906 35.9477 30.8944 35.94 30.8944H34.8053C34.7985 30.8944 34.788 30.8906 34.7803 30.884C34.7736 30.8774 34.7697 30.866 34.7697 30.8594V29.4086C34.7697 29.3982 34.7669 29.3916 34.763 29.3849C34.7563 29.3774 34.7457 29.3745 34.738 29.3745C32.0597 29.2356 30.6638 27.9341 30.5928 25.557C30.5928 25.5532 30.5966 25.5466 30.5966 25.5428C30.6005 25.539 30.6005 25.5352 30.6033 25.5324C30.6072 25.5286 30.611 25.5248 30.6139 25.5248C30.6216 25.522 30.6245 25.522 30.6283 25.522L33.1944 25.5182ZM34.7697 19.4795C34.7697 19.4757 34.7668 19.4691 34.7668 19.4653C34.763 19.4624 34.7592 19.4587 34.7563 19.4549C34.7525 19.4521 34.7486 19.4483 34.7419 19.4483C34.7381 19.4445 34.7313 19.4445 34.7275 19.4445C33.9278 19.5834 33.5083 19.9861 33.5083 20.6808C33.5083 21.4057 33.9451 21.6694 34.7246 21.9057C34.7275 21.9086 34.7352 21.9086 34.7419 21.9057C34.7457 21.9057 34.7525 21.902 34.7563 21.8982C34.7592 21.8953 34.763 21.8916 34.7668 21.8878C34.7697 21.8812 34.7697 21.8774 34.7697 21.8708V19.4795ZM36.0216 24.6193C36.0148 24.6193 36.011 24.6193 36.0043 24.6193C36.0004 24.6193 35.9937 24.6231 35.9899 24.626C35.9861 24.6297 35.9832 24.6335 35.9793 24.6401C35.9793 24.6439 35.9755 24.6505 35.9755 24.6543V27.2573C35.9755 27.264 35.9793 27.2677 35.9793 27.2706C35.9832 27.2781 35.9861 27.281 35.9899 27.2847C35.9937 27.2885 35.9966 27.2885 36.0043 27.2914C36.0072 27.2914 36.0149 27.2914 36.0177 27.2914C36.8779 27.1562 37.3857 26.7469 37.3857 25.8934C37.3896 25.0882 36.8779 24.8377 36.0216 24.6193Z" fill="#111827"/>
<defs>
<linearGradient id="paint0_linear_1_11721" x1="19.3855" y1="0" x2="19.3855" y2="27.1569" gradientUnits="userSpaceOnUse">
<stop stop-color="#1347FF"/>
<stop offset="1" stop-color="#0032E7"/>
</linearGradient>
<linearGradient id="paint1_linear_1_11721" x1="10.6981" y1="11.9379" x2="10.6981" y2="15.7413" gradientUnits="userSpaceOnUse">
<stop stop-color="#1347FF"/>
<stop offset="1" stop-color="#0032E7"/>
</linearGradient>
</defs>
</svg>
