<svg width="47" height="47" viewBox="0 0 47 47" fill="none" xmlns="http://www.w3.org/2000/svg">
<rect x="0.536621" y="0.631958" width="45.4852" height="45.4852" rx="11.3713" fill="#F6F7F9"/>
<path d="M32.7544 23.3744V28.1125C32.7544 30.9553 30.8592 32.8505 28.0164 32.8505H18.5403C15.6975 32.8505 13.8022 30.9553 13.8022 28.1125V23.3744C13.8022 20.7969 15.3563 18.9965 17.7727 18.6932C18.0191 18.6553 18.275 18.6364 18.5403 18.6364H28.0164C28.2628 18.6364 28.4997 18.6458 28.7271 18.6838C31.1719 18.968 32.7544 20.778 32.7544 23.3744Z" stroke="#111827" stroke-width="1.42141" stroke-linecap="round" stroke-linejoin="round"/>
<path d="M28.7288 18.6838C28.5013 18.6459 28.2644 18.6364 28.0181 18.6364H18.542C18.2766 18.6364 18.0208 18.6554 17.7744 18.6933C17.9071 18.4279 18.0966 18.1815 18.324 17.9541L21.4038 14.8649C22.702 13.5762 24.8057 13.5762 26.1039 14.8649L27.7622 16.5422C28.3687 17.1392 28.6909 17.8973 28.7288 18.6838Z" stroke="#111827" stroke-width="1.42141" stroke-linecap="round" stroke-linejoin="round"/>
<path d="M32.7546 23.8482H29.9118C28.8694 23.8482 28.0166 24.7011 28.0166 25.7435C28.0166 26.7858 28.8694 27.6387 29.9118 27.6387H32.7546" stroke="#111827" stroke-width="1.42141" stroke-linecap="round" stroke-linejoin="round"/>
</svg>
